<?xml version="1.0" encoding="UTF-8"?>
<svg class="candies" xmlns="http://www.w3.org/2000/svg" viewBox="0 0 433.91 374.73">
  <g class="candies-item">
    <polygon points="147.15 370.75 148.83 359.51 159.68 355.76 128.92 317.93 128.02 366.69 138.87 362.94 147.15 370.75" fill="#f48001"/>
    <path d="m148.51,374.73l-10.15-9.56-12.38,4.26,1.02-56.88,35.91,44.15-12.38,4.26-2.03,13.78Zm-9.17-14.05l6.4,6.05,1.33-8.74,9.33-3.2-25.53-31.5-.74,40.64,9.21-3.24Z" fill="#4b0062"/>
    <polygon points="112.33 253.75 104.05 245.94 102.37 257.19 91.52 260.93 122.32 298.76 123.18 250 112.33 253.75" fill="#f48001"/>
    <path d="m124.15,304.15l-35.91-44.15,12.38-4.26,2.07-13.78,10.15,9.56,12.38-4.26-1.05,56.88Zm-29.36-42.28l25.65,31.54.74-40.64-9.33,3.24-6.4-6.05-1.33,8.74-9.33,3.16Z" fill="#4b0062"/>
    <circle cx="125.51" cy="308.48" r="22.68" fill="#f48001"/>
    <path d="m125.64,333c-13.63.03-24.7-10.99-24.73-24.62-.03-13.63,10.99-24.7,24.62-24.73,13.63-.03,24.7,10.99,24.73,24.62.02,10.53-6.63,19.91-16.58,23.36-2.59.9-5.3,1.36-8.04,1.37Zm0-45.4c-2.31,0-4.61.38-6.79,1.13h0c-10.76,3.72-16.46,15.46-12.74,26.22,3.72,10.76,15.46,16.46,26.22,12.74,10.76-3.72,16.46-15.46,12.74-26.22-2.87-8.29-10.66-13.85-19.42-13.87Z" fill="#4b0062"/>
  </g>
  <g class="candies-item-2" data-name="candies-item">
    <polygon points="431.24 201.91 427.06 194.64 431.61 187.5 396.5 179.75 418.33 208.33 422.88 201.19 431.24 201.91" fill="#f48001"/>
    <path d="m433.85,203.58l-10.25-.87-5.2,8.13-25.48-33.32,40.99,9.04-5.2,8.13,5.14,8.89Zm-11.74-3.91l6.47.56-3.24-5.66,3.92-6.13-29.19-6.5,18.2,23.82,3.84-6.09Z" fill="#4b0062"/>
    <polygon points="357.5 150.28 349.14 149.56 353.32 156.82 348.77 163.96 383.9 171.7 362.05 143.14 357.5 150.28" fill="#f48001"/>
    <path d="m387.43,173.97l-40.99-9.04,5.2-8.13-5.12-8.91,10.25.87,5.2-8.13,25.46,33.34Zm-36.34-10.97l29.27,6.47-18.2-23.82-3.9,6.15-6.47-.56,3.24,5.66-3.94,6.1Z" fill="#4b0062"/>
    <circle cx="390.2" cy="175.85" r="16.73" fill="#f48001"/>
    <path d="m401.51,189.96c-7.86,6.26-19.31,4.97-25.57-2.89-6.26-7.86-4.97-19.3,2.89-25.57,7.86-6.26,19.31-4.97,25.57,2.89,4.84,6.07,5.29,14.54,1.13,21.09-1.08,1.7-2.44,3.22-4.02,4.48Zm-20.81-26.23c-1.34,1.06-2.49,2.33-3.41,3.77h0c-4.51,7.08-2.43,16.48,4.66,20.99,7.08,4.51,16.48,2.43,20.99-4.66,4.51-7.08,2.43-16.48-4.66-20.99-5.45-3.47-12.51-3.12-17.58.89Z" fill="#4b0062"/>
  </g>
  <g class="candies-item-3" data-name="candies-item">
    <polygon points="159.11 114.03 166.68 109.84 173.95 114.65 182.58 78.59 152.73 100.58 160 105.42 159.11 114.03" fill="#a26bb4"/>
    <path d="m174.78,117.05l-8.16-5.52-9.29,5.13,1.1-10.54-8.28-5.49,34.81-25.67-10.18,42.08Zm-8.16-8.9l6.26,4.15,7.18-30.03-24.87,18.34,6.26,4.13-.68,6.68,5.85-3.26Z" fill="#4b0062"/>
    <polygon points="213.66 38.94 214.55 30.31 206.95 34.49 199.68 29.68 191.07 65.74 220.93 43.75 213.66 38.94" fill="#a26bb4"/>
    <path d="m188.7,69.36l10.03-42.08,8.28,5.49,9.29-5.13-1.1,10.54,8.28,5.49-34.78,25.7Zm11.87-37.24l-7.18,30.06,24.87-18.34-6.26-4.13.68-6.68-5.94,3.23-6.17-4.15Z" fill="#4b0062"/>
    <circle cx="186.81" cy="72.07" r="17.24" fill="#a26bb4"/>
    <path d="m186.65,90.76c-10.34-.05-18.69-8.47-18.64-18.81.05-10.34,8.47-18.69,18.81-18.64,3.63.02,7.18,1.09,10.21,3.09h0c8.64,5.69,11.03,17.3,5.34,25.94-3.48,5.29-9.4,8.46-15.73,8.43Zm0-34.51c-8.7,0-15.76,7.06-15.75,15.77,0,8.7,7.06,15.76,15.77,15.75,8.7,0,15.76-7.06,15.75-15.77,0-5.29-2.66-10.22-7.07-13.14h0c-2.53-1.62-5.48-2.47-8.49-2.46l-.21-.15Z" fill="#4b0062"/>
  </g>
  <g class="candies-item-4" data-name="candies-item">
    <polygon points="67.6 229.29 61.27 229.22 58.38 223.53 39.86 243.36 66.81 240.15 63.93 234.44 67.6 229.29" fill="#a26bb4"/>
    <path d="m58.72,221.7l3.2,6.46,7.77.09-4.5,6.31,3.29,6.48-31.43,3.76,21.68-23.11Zm1.98,8.61l-2.48-4.91-15.42,16.52,22.45-2.69-2.5-4.89,2.85-4-4.9-.03Z" fill="#4b0062"/>
    <polygon points="5.77 257.37 2.08 262.55 8.43 262.63 11.32 268.31 29.82 248.47 2.87 251.68 5.77 257.37" fill="#a26bb4"/>
    <path d="m32.64,247.03l-21.58,23.16-3.29-6.48-7.77-.09,4.5-6.31-3.29-6.48,31.42-3.79Zm-21.01,19.42l15.43-16.54-22.45,2.69,2.5,4.89-2.85,4,4.95.09,2.43,4.87Z" fill="#4b0062"/>
    <circle cx="34.82" cy="245.99" r="12.62" fill="#a26bb4"/>
    <path d="m41.67,234.15c6.56,3.77,8.83,12.14,5.07,18.71-3.77,6.56-12.14,8.83-18.71,5.07-2.3-1.32-4.17-3.29-5.38-5.65h0c-3.44-6.74-.77-14.99,5.97-18.44,4.13-2.11,9.04-1.99,13.05.32Zm-12.47,21.97c5.54,3.14,12.58,1.2,15.72-4.34,3.14-5.54,1.2-12.58-4.34-15.72-5.54-3.14-12.58-1.2-15.72,4.34-1.91,3.37-2,7.47-.25,10.92h0c1.03,1.95,2.59,3.55,4.51,4.63l.08.17Z" fill="#4b0062"/>
  </g>
  <g class="candies-item-5" data-name="candies-item">
    <polygon points="73.79 156 62.72 158.11 68.41 167.83 63.04 175.73 84.11 167.83 76.23 146.76 73.79 156" fill="#fff0dc"/>
    <path d="m59.77,178.3l7.17-10.52-6.19-10.57,12.03-2.29,3.22-12.31,9.72,25.98-25.95,9.72Zm5.03-19.28l5.19,8.86-3.6,5.29,16.18-6.07-6.07-16.18-1.61,6.17-10.09,1.94Z" fill="#4b0062"/>
    <polygon points="167.78 205.94 162.09 196.2 167.48 188.29 146.38 196.2 154.29 217.26 156.7 208.03 167.78 205.94" fill="#fff0dc"/>
    <path d="m154.49,221.42l-9.72-25.98,25.98-9.72-7.17,10.52,6.19,10.57-12.03,2.29-3.25,12.31Zm-6.47-24.49l6.07,16.18,1.61-6.17,10.07-1.91-5.19-8.86,3.6-5.29-16.16,6.04Z" fill="#4b0062"/>
    <path d="m152.15,194.33l-3.37,7.4c-1.51,3.32-5.42,4.78-8.73,3.27,0,0,0,0,0,0l-58.42-26.61c-3.3-1.52-4.77-5.42-3.27-8.73l3.37-7.4c1.51-3.32,5.42-4.78,8.73-3.27,0,0,0,0,0,0l58.47,26.61c3.3,1.52,4.77,5.42,3.27,8.73h-.05Z" fill="#fff0dc"/>
    <path d="m142.76,206.87c-1.12,0-2.23-.24-3.25-.7l-58.42-26.61c-3.94-1.8-5.68-6.45-3.9-10.4l3.37-7.4c1.79-3.95,6.45-5.69,10.4-3.9l58.42,26.61c1.53.69,2.79,1.85,3.6,3.32,1.23,2.18,1.34,4.82.3,7.1l-1.16-.53,1.16.53-3.37,7.4c-1.29,2.79-4.08,4.58-7.15,4.58Zm-55.02-47.19c-2.09,0-3.99,1.22-4.86,3.12l-3.37,7.3c-1.21,2.68-.03,5.84,2.64,7.07l58.42,26.61c2.68,1.22,5.85.04,7.07-2.64,0,0,0,0,0,0l3.37-7.4c.71-1.55.64-3.35-.2-4.83-.57-1-1.45-1.79-2.52-2.24l-58.34-26.63c-.7-.27-1.46-.39-2.21-.35Z" fill="#4b0062"/>
    <path d="m93.83,160.53l-15.53,14.6c-.77-1.7-.77-3.66,0-5.36l3.37-7.4c1.51-3.32,5.42-4.78,8.73-3.27,0,0,0,0,0,0l3.42,1.43Z" fill="#f44b1b"/>
    <path d="m77.87,177.17l-.7-1.64c-.91-2.03-.91-4.36,0-6.39l3.37-7.4c1.79-3.95,6.45-5.69,10.4-3.9l5.03,2.32-18.1,17.02Zm9.87-17.62c-2.09,0-3.98,1.22-4.86,3.12l-3.37,7.43c-.36.79-.53,1.65-.48,2.52l12.59-11.75-1.66-.76c-.7-.3-1.45-.44-2.21-.43v-.13Z" fill="#4b0062"/>
    <polygon points="113.54 169.49 96.65 185.27 86.02 180.44 102.91 164.68 113.54 169.49" fill="#f44b1b"/>
    <path d="m96.9,186.76l-13.09-5.97,18.88-17.62,13.09,5.97-18.88,17.62Zm-8.63-6.59l8.13,3.7,14.88-13.89-8.13-3.7-14.88,13.89Z" fill="#4b0062"/>
    <polygon points="133.22 178.45 116.33 194.23 105.73 189.4 122.62 173.64 133.22 178.45" fill="#f44b1b"/>
    <path d="m116.58,195.72l-13.09-5.97,18.88-17.62,13.06,5.97-18.85,17.62Zm-8.61-6.7l8.23,3.73,14.88-13.89-8.23-3.73-14.88,13.89Z" fill="#4b0062"/>
    <path d="m151.89,188.37l-15.86,14.83-10.62-4.83,16.89-15.76,6.57,3c1.28.57,2.34,1.54,3.02,2.77Z" fill="#f44b1b"/>
    <path d="m136.34,204.68l-13.09-5.97,18.88-17.62,7.35,3.35c1.53.69,2.79,1.85,3.6,3.32l.48.86-17.22,16.06Zm-8.61-6.7l8.13,3.7,14.47-13.52c-.51-.62-1.16-1.11-1.89-1.43l-5.81-2.64-14.9,13.89Z" fill="#4b0062"/>
  </g>
  <g class="candies-item-6" data-name="candies-item">
    <polygon points="415.51 261.55 421.83 248.31 407.26 246.78 403.11 235.07 395.15 263.25 423.31 271.23 415.51 261.55" fill="#fff0dc"/>
    <path d="m402.94,229.66l5.5,15.63,15.86,1.66-6.88,14.38,10.42,12.87-34.72-9.84,9.82-34.69Zm16.33,20.14l-13.28-1.4-2.77-7.85-6.12,21.64,21.64,6.12-5.22-6.44,5.75-12.07Z" fill="#4b0062"/>
    <polygon points="290.7 321.56 305.29 323.11 309.42 334.85 317.4 306.65 289.23 298.69 297.05 308.34 290.7 321.56" fill="#fff0dc"/>
    <path d="m284.72,295.7l34.72,9.84-9.84,34.72-5.5-15.63-15.86-1.66,6.88-14.38-10.4-12.89Zm30.66,12.1l-21.64-6.12,5.22,6.44-5.76,12.03,13.28,1.4,2.77,7.85,6.13-21.6Z" fill="#4b0062"/>
    <path d="m314.91,314.13l-5.16-9.24c-2.31-4.14-.83-9.37,3.3-11.68,0,0,0,0,0,0l72.93-40.72c4.14-2.29,9.35-.82,11.68,3.3l5.16,9.24c2.31,4.14.83,9.37-3.3,11.68,0,0,0,0,0,0l-72.97,40.78c-4.14,2.29-9.35.82-11.68-3.3l.04-.05Z" fill="#fff0dc"/>
    <path d="m309.01,294.62c.86-1.18,1.97-2.15,3.24-2.86l72.93-40.72c4.93-2.73,11.14-.98,13.9,3.93l5.16,9.24c2.75,4.92,1,11.15-3.93,13.9l-72.93,40.72c-1.9,1.07-4.1,1.5-6.26,1.21-3.24-.39-6.09-2.31-7.67-5.16l1.45-.81-1.45.81-5.16-9.24c-1.93-3.5-1.66-7.8.71-11.03Zm91.89-21.29c1.61-2.19,1.8-5.12.47-7.5l-5.05-9.16c-1.88-3.34-6.1-4.54-9.45-2.68l-72.93,40.72c-3.35,1.87-4.55,6.09-2.69,9.44,0,0,0,0,0,0l5.16,9.24c1.07,1.94,3.02,3.25,5.22,3.52,1.49.18,3-.14,4.29-.91l72.9-40.62c.83-.53,1.54-1.23,2.08-2.05Z" fill="#4b0062"/>
    <path d="m395.31,279.06l-3.33-27.54c2.38.51,4.43,2.01,5.62,4.13l5.16,9.24c2.31,4.14.83,9.37-3.3,11.68,0,0,0,0,0,0l-4.14,2.48Z" fill="#f44b1b"/>
    <path d="m390.18,249.5l2.26.52c2.83.61,5.27,2.41,6.7,4.93l5.16,9.24c2.75,4.92,1,11.15-3.93,13.9l-6.31,3.49-3.88-32.09Zm10.86,23.93c1.61-2.19,1.79-5.12.47-7.5l-5.18-9.26c-.55-.99-1.33-1.83-2.27-2.44l2.62,22.26,2.07-1.16c.85-.5,1.59-1.18,2.16-1.99l.13.1Z" fill="#4b0062"/>
    <polygon points="370.72 292.81 367.2 262.94 380.46 255.53 383.95 285.38 370.72 292.81" fill="#f44b1b"/>
    <path d="m365.45,262.06l16.34-9.12,3.91,33.37-16.34,9.12-3.91-33.37Zm13.57-3.96l-10.15,5.67,3.09,26.31,10.15-5.67-3.09-26.31Z" fill="#4b0062"/>
    <polygon points="346.15 306.53 342.63 276.66 355.87 269.28 359.36 299.13 346.15 306.53" fill="#f44b1b"/>
    <path d="m340.88,275.78l16.34-9.12,3.91,33.37-16.33,9.09-3.93-33.35Zm13.66-3.86l-10.25,5.76,3.09,26.31,10.25-5.76-3.09-26.31Z" fill="#4b0062"/>
    <path d="m321.36,318.46l-3.31-28.05,13.26-7.41,3.49,29.85-8.2,4.58c-1.59.9-3.42,1.26-5.23,1.03Z" fill="#f44b1b"/>
    <path d="m316.26,289.58l16.34-9.12,3.91,33.37-9.18,5.12c-1.9,1.07-4.1,1.5-6.26,1.21l-1.27-.16-3.56-30.43Zm13.66-3.86l-10.15,5.67,3.01,25.59c1.04-.06,2.05-.36,2.96-.87l7.25-4.06-3.07-26.33Z" fill="#4b0062"/>
  </g>
  <g class="candies-item-7" data-name="candies-item">
    <rect x="206.98" y="274.59" width="47.53" height="6.01" transform="translate(-126.58 328.8) rotate(-58.42)" fill="#4b0062"/>
    <circle cx="252.68" cy="241.58" r="24.46" fill="#f44b1b"/>
    <path d="m241.35,264.81l-2.12-1.05c-12.13-7.45-15.91-23.33-8.46-35.45,7.45-12.13,23.33-15.91,35.45-8.46,12.12,7.45,15.91,23.32,8.46,35.45h0c-7.02,11.27-21.43,15.38-33.34,9.51Zm21.75-43.85c-11.46-5.67-25.34-.98-31.01,10.48-5.67,11.46-.98,25.34,10.48,31.01,10.72,5.31,23.72,1.57,29.99-8.62h0c6.7-10.89,3.31-25.14-7.58-31.84-.02,0-.03-.02-.05-.03-.65-.35-1.27-.69-1.83-.97v-.02Z" fill="#4b0062"/>
    <path d="m245.06,266.03c-6.73-8.99-9.16-20.45-5.87-27.87,2.36-4.99,7.36-8.2,12.88-8.26,5.54-.88,10.76,2.88,11.67,8.42,1.35,5.91-.93,13.69-6.65,15.71-2.55,1.19-5.55.83-7.75-.91-1.92-1.65-2.8-4.2-2.31-6.68.56-2.76,2.59-5,5.29-5.82l.85,2.47c-1.82.5-3.2,1.98-3.57,3.83-.17,1.5.43,2.98,1.59,3.95,1.5,1.1,3.48,1.28,5.15.48,4.27-1.57,6.04-7.93,4.99-12.67-.75-4.17-4.68-7-8.87-6.39-4.59.02-8.76,2.69-10.72,6.84-2.87,6.49-.52,17.11,5.56,25.23l-2.26,1.66Z" fill="#4b0062"/>
  </g>
  <g class="candies-item-8" data-name="candies-item">
    <rect x="74" y="55.23" width="7.91" height="62.53" transform="translate(-22.83 28.19) rotate(-17.92)" fill="#4b0062"/>
    <circle cx="60.67" cy="33.77" r="32.18" fill="#f44b1b"/>
    <path d="m74.24,64.96c-.95.41-1.91.81-2.86,1.22-17.82,5.76-36.93-4.01-42.7-21.83C22.93,26.53,32.7,7.42,50.52,1.65c17.82-5.76,36.93,4.01,42.69,21.83h0c5.27,16.65-2.93,34.58-18.97,41.48ZM48.95,5.74c-15.46,6.62-22.64,24.52-16.02,39.98,6.62,15.46,24.52,22.64,39.98,16.02,14.47-6.19,21.84-22.39,17-37.37h0C84.75,8.36,67.58-.43,51.58,4.74c-.02,0-.05.02-.07.02-.9.35-1.77.68-2.54,1.01v-.03Z" fill="#4b0062"/>
    <path d="m78.63,62.3c-14.75-.95-28.29-8.31-32.89-17.94-2.98-6.63-1.92-14.37,2.75-19.95,3.86-6.3,12.08-8.3,18.4-4.48,7.06,3.7,12.9,12.63,10.04,20.08-.99,3.56-3.91,6.26-7.54,6.97-3.29.51-6.59-.79-8.66-3.4-2.29-2.92-2.79-6.86-1.3-10.26l3.2,1.26c-1.05,2.24-.75,4.89.78,6.84,1.36,1.45,3.35,2.12,5.31,1.79,2.38-.56,4.25-2.39,4.88-4.75,2.07-5.61-2.77-12.82-8.41-15.82-4.82-2.81-10.99-1.3-13.97,3.41-3.9,4.62-4.8,11.06-2.31,16.57,4.04,8.41,16.68,15.14,29.99,15.99l-.27,3.68Z" fill="#4b0062"/>
  </g>
  <g class="candies-item-9" data-name="candies-item">
    <path d="m322.75,79.44c.4.76.74,1.56,1.01,2.38,2.55,6.68,2.83,14.02.82,20.88-.24.8-.49,1.61-.78,2.39l-1.09,2.95-5.05,13.82-.4.99-1.35-.52-16.03-5.95,2.74-7.43,1.57-4.21,2.26-6.06c.75-2.05,1.04-4.23.87-6.41-.06-.17-.13-.34-.21-.5-.16-1.58-.59-3.13-1.27-4.56-1.65-3.64-4.7-6.47-8.46-7.83l-.41-.14c-.9-.35-1.85-.58-2.82-.68-3.91-.52-7.86.53-11,2.9-1.47,1.05-2.72,2.37-3.69,3.9-.61.9-1.1,1.88-1.45,2.91l-5.12,13.85-1.67,4.6-3.61,9.86-5.02,13.54-2.11,5.68-6.38,17.23-.38-.15-16.7-7.15,4.34-11.73,5.02-13.81,1.42-3.83,7.13-19.22.85-2.31,4.83-13.15c.8-2.17,1.83-4.26,3.05-6.24,1.3-2.12,2.85-4.08,4.61-5.85,2.52-2.54,5.44-4.67,8.63-6.3,6.65-3.39,14.25-4.45,21.58-3.02.3-.13.76.14,1.14.22,1.42.32,2.81.73,4.18,1.23,3.89,1.5,7.47,3.71,10.55,6.52h0c3.56,3.09,6.42,6.89,8.39,11.17Z" fill="#fff0dc"/>
    <path d="m255.09,155.4l-2.07-.84-18.31-7.83,24.28-65.54c.85-2.28,1.92-4.46,3.19-6.53,1.42-2.19,3.09-4.2,4.98-6,8.29-8.38,20.23-12.06,31.8-9.8l.8.13.4.11c1.5.33,2.98.76,4.44,1.28,3.78,1.43,7.28,3.48,10.37,6.09h0l.89.71c3.65,3.24,6.58,7.22,8.6,11.66.44.85.82,1.73,1.12,2.64,2.66,7.01,2.95,14.7.82,21.89-.26.85-.53,1.7-.8,2.52l-7.34,19.46-2.98-1.15-17.7-6.57,7.34-19.46c.66-1.8.92-3.72.77-5.62l-.2-.46c-.13-1.38-.5-2.72-1.1-3.97-1.44-3.23-4.13-5.73-7.45-6.93l-.46-.16c-.74-.28-1.51-.46-2.3-.55-3.46-.48-6.97.43-9.75,2.53-1.3.93-2.4,2.1-3.26,3.44-.53.79-.95,1.65-1.25,2.56l-24.82,66.39Zm-15.83-10.63l13.74,5.87,23.35-63.05c.41-1.17.97-2.29,1.67-3.32,1.08-1.7,2.48-3.18,4.12-4.35,3.51-2.63,7.92-3.79,12.27-3.21,1.1.12,2.18.38,3.21.78l.46.16c4.2,1.52,7.6,4.67,9.43,8.74.77,1.61,1.25,3.34,1.43,5.12.06.23.09.46.1.7.2,2.39-.11,4.79-.91,7.05l-5.95,16.03,13.92,5.28,5.9-16.05c.27-.74.52-1.54.74-2.3,1.92-6.48,1.65-13.42-.76-19.73-.26-.77-.57-1.52-.95-2.25h0c-1.68-3.7-4.06-7.05-7.01-9.84l-.75-.66c-2.96-2.65-6.39-4.73-10.11-6.12-1.29-.47-2.62-.86-3.96-1.17l-.38-.07-.56-.12c-10.45-2.09-21.26,1.21-28.76,8.79-1.67,1.65-3.14,3.49-4.38,5.48-1.15,1.86-2.12,3.84-2.88,5.89l-22.99,62.35Z" fill="#4b0062"/>
    <path d="m323.69,81.84c2.55,6.68,2.83,14.02.82,20.88-.24.8-.49,1.61-.78,2.39l-1.09,2.95-18.54-3.33,2.26-6.06c.75-2.05,1.04-4.23.87-6.41-.06-.17-.13-.34-.21-.5l16.67-9.94Z" fill="#f44b1b"/>
    <path d="m323.78,110.12l-22.13-3.99,3-8.09c.66-1.8.92-3.72.77-5.62l-.26-1.25,1.06-.99,18.37-10.97.84,1.98c2.7,7.05,3,14.79.87,22.02-.26.85-.53,1.7-.8,2.52l-1.72,4.39Zm-17.27-6.75l14.95,2.67.56-1.52c.27-.74.52-1.54.74-2.3,1.7-5.78,1.67-11.92-.09-17.68l-13.65,8.15c.09,2.27-.27,4.53-1.08,6.65l-1.44,4.04Z" fill="#4b0062"/>
    <path d="m298.55,60.47l-1.54,18.72c-.9-.35-1.85-.58-2.82-.68-3.91-.52-7.86.53-11,2.9-1.47,1.05-2.72,2.37-3.69,3.9l-11.17-15.52c2.52-2.54,5.44-4.67,8.63-6.3,6.65-3.39,14.25-4.45,21.58-3.02Z" fill="#f44b1b"/>
    <path d="m298.76,81.65l-2.21-.82c-.75-.29-1.54-.48-2.34-.57-3.46-.48-6.97.43-9.75,2.53-1.3.93-2.4,2.1-3.26,3.44l-1.43,2.24-13.61-18.89,1.06-1.07c8.3-8.39,20.25-12.08,31.83-9.82l1.57.31-1.87,22.64Zm-13.24-3.67c2.77-1.17,5.79-1.57,8.77-1.18l.96.14,1.23-14.93c-9.41-1.34-18.92,1.61-25.92,8.05l8.83,12.31c.77-.87,1.64-1.66,2.59-2.34,1.09-.83,2.28-1.51,3.54-2.04Z" fill="#4b0062"/>
    <polygon points="271.27 106.68 267.56 116.59 262.54 130.13 246.39 120.33 247.81 116.5 254.94 97.28 255.79 94.97 271.27 106.68" fill="#f44b1b"/>
    <path d="m263.48,132.8l-19.27-11.66,10.74-29,18.46,13.99-9.93,26.68Zm-14.85-13.18l13,7.89,7.51-20.16-12.49-9.44h0l-8.03,21.7Z" fill="#4b0062"/>
  </g>
</svg>