<?xml version="1.0" encoding="UTF-8"?><svg id="frankenstein" xmlns="http://www.w3.org/2000/svg" viewBox="0 0 274.45 328.63"><polygon points="176.71 190.29 176.71 328.13 164.22 328.13 164.22 320.05 161.93 322.34 156.14 328.13 133.16 328.13 133.16 190.29 176.71 190.29" fill="#4b0062"/><path d="m177.21,328.63h-13.48v-7.37l-7.37,7.37h-23.7v-138.84h44.55v138.84Zm-12.49-1h11.49v-136.84h-42.55v136.84h22.27l8.79-8.79v8.79Z" fill="#4b0062"/><polygon points="220.25 190.29 220.25 328.13 197.27 328.13 191.49 322.34 189.2 320.05 189.2 328.13 176.71 328.13 176.71 190.29 220.25 190.29" fill="#4b0062"/><path d="m220.73,328.63h-23.67l-7.33-7.37v7.37h-13.52v-138.84h44.52v138.84Zm-23.27-1h22.27v-136.84h-42.52v136.84h11.52v-8.79l8.73,8.79Z" fill="#4b0062"/><rect x="134.4" y="66.66" width="76.37" height="142.84" fill="#a26bb4"/><path d="m211.27,210.01h-77.37V66.16h77.37v143.85Zm-76.37-1h75.37V67.16h-75.37v141.85Z" fill="#4b0062"/><path d="m109.73,55.87h-25.6v63.74H19.21c-4.42,0-8,3.58-8,8v40.77h98.52v62.66h38.53V55.87h-38.53Z" fill="#f48001"/><path d="m148.73,231.57h-39.49v-62.64H10.73v-41.29c0-4.71,3.82-8.52,8.53-8.53h64.43v-63.74h65.04v176.2Zm-38.53-1h37.53V56.37h-63.09v63.74H19.21c-4.16,0-7.52,3.37-7.53,7.53v40.29h98.56l-.04,62.64Z" fill="#4b0062"/><path d="m46.73,119.61v48.8H11.18v-40.77c0-4.42,3.58-8,8-8l27.55-.03Z" fill="#fff0dc"/><path d="m47.25,168.93H10.73v-41.29c0-4.71,3.82-8.52,8.53-8.53h28v49.82Zm-35.53-1h34.57v-47.8h-27c-4.16,0-7.52,3.37-7.53,7.53l-.04,40.27Z" fill="#4b0062"/><rect x="109.24" y="85.99" width="1" height="145.08" fill="#4b0062"/><rect x="196.58" y="55.87" width="51.25" height="175.2" fill="#f48001"/><path d="m248.33,231.57h-52.25V55.37h52.25v176.2Zm-51.25-1h50.25V56.37h-50.25v174.2Z" fill="#4b0062"/><polygon points="210.42 130.29 222.2 147.38 196.58 191.39 196.58 55.87 208.94 55.87 229.97 113.45 210.42 130.29" fill="#f44b1b"/><path d="m196.08,193.24V55.37h13.21l21.27,58.23-19.47,16.77,11.71,17-.16.27-26.56,45.6Zm1-136.87v133.17l24.53-42.14-11.88-17.2,19.63-16.91-20.79-56.93h-11.49Z" fill="#4b0062"/><polygon points="148.27 55.87 148.27 183.7 127.13 147.38 138.91 130.29 119.36 113.45 140.39 55.87 148.27 55.87" fill="#f44b1b"/><path d="m148.73,185.55l-22.23-38.2,11.71-17-19.48-16.75,21.27-58.23h8.73v130.18Zm-21-38.15l20,34.45V56.37h-7l-20.79,56.93,19.63,16.91-11.84,17.19Z" fill="#4b0062"/><path d="m214,48.6h-1.32V8.31c0-1.03-.21-2.05-.62-3-1.22-2.9-4.06-4.79-7.2-4.78h-70.63c-4.31,0-7.81,3.5-7.82,7.81v91.19c0,4.32,3.5,7.82,7.82,7.82h70.63c4.32,0,7.82-3.5,7.82-7.82h0v-26.27h1.32c2.97,0,5.37-2.4,5.37-5.37v-13.96c-.02-2.95-2.42-5.33-5.37-5.33Z" fill="#fff0dc"/><path d="m204.86,107.85h-70.63c-4.59,0-8.31-3.73-8.32-8.32V8.31C125.92,3.72,129.64,0,134.23,0h70.63c3.35-.01,6.37,2,7.66,5.09.44,1.02.66,2.11.66,3.22v39.79h.82c3.24,0,5.86,2.63,5.87,5.87v13.96c0,3.24-2.63,5.86-5.87,5.87h-.82v25.73c0,4.59-3.73,8.31-8.32,8.32ZM134.23,1c-4.04,0-7.31,3.27-7.32,7.31v91.22c0,4.04,3.28,7.31,7.32,7.32h70.63c4.04,0,7.31-3.28,7.32-7.32v-26.77h1.82c2.69,0,4.86-2.18,4.87-4.87v-13.96c0-2.69-2.18-4.86-4.87-4.87h-1.82V8.31c0-.97-.2-1.94-.58-2.83-1.13-2.72-3.79-4.49-6.74-4.48h-70.63Z" fill="#4b0062"/><polygon points="157.79 50.1 152.58 71.41 163 71.41 157.79 50.1" fill="#f48001"/><path d="m212.68,8.31v40.29h-7.48V5.28h6.86c.41.96.62,1.99.62,3.03Z" fill="#4b0062"/><path d="m213.18,49.1h-8.45V4.78h7.69l.13.3c.44,1.02.66,2.12.66,3.23l-.03,40.79Zm-7.48-1h6.48V8.31c0-.86-.15-1.72-.46-2.53h-6l-.02,42.32Z" fill="#4b0062"/><path d="m212.68,8.31v11l-7.12-4-.36.2-6.84,3.8-7.19-4-7.2,4-7.2-4-7.19,4-7.2-4-7.19,4-7.2-4-7.19,4-7.2-4-7.19,4v-11c0-4.31,3.51-7.81,7.82-7.81h70.63c3.14,0,5.98,1.88,7.2,4.78.41.96.62,1.99.62,3.03Z" fill="#4b0062"/><path d="m125.91,20.24v-11.93C125.92,3.72,129.64,0,134.23,0h70.63c3.35-.01,6.37,2,7.66,5.09.44,1.02.66,2.11.66,3.22v11.9l-7.62-4.28-7.2,4-7.19-4-7.2,4-7.2-4-7.19,4-7.2-4-7.19,4-7.2-4-7.19,4-7.2-4-7.69,4.31Zm50.82-5.41l7.2,4,7.2-4,7.19,4,7.2-4,6.62,3.68v-10.2c0-.97-.2-1.94-.58-2.83-1.13-2.72-3.79-4.49-6.74-4.48h-70.59c-4.04,0-7.31,3.27-7.32,7.31v10.23l6.69-3.71,7.2,4,7.19-4,7.2,4,7.19-4,7.2,4,7.15-4Z" fill="#4b0062"/><rect x="113.17" y="17.69" width="7.98" height="19.26" fill="#a26bb4"/><path d="m121.65,37.45h-9v-20.26h9v20.26Zm-8-1h7v-18.26h-7v18.26Z" fill="#4b0062"/><rect x="121.15" y="24.14" width="5.27" height="6.36" fill="#a26bb4"/><path d="m126.91,31h-6.27v-7.36h6.27v7.36Zm-5.27-1h4.27v-5.36h-4.27v5.36Z" fill="#4b0062"/><rect x="208.19" y="17.7" width="7.98" height="19.26" fill="#a26bb4"/><path d="m216.67,37.45h-9v-20.26h9v20.26Zm-8-1h7v-18.26h-7v18.26Z" fill="#4b0062"/><rect x="199.84" y="24.15" width="8.35" height="6.36" fill="#a26bb4"/><path d="m208.73,31h-9.35v-7.36h9.35v7.36Zm-8.35-1h7.35v-5.36h-7.35v5.36Z" fill="#4b0062"/><rect x="126.41" y="27.31" width="70.16" height="1" fill="#4b0062"/><rect x="188.72" y="24.14" width="1" height="6.97" fill="#4b0062"/><rect x="174.86" y="24.14" width="1" height="6.97" fill="#4b0062"/><rect x="161" y="24.14" width="1" height="6.97" fill="#4b0062"/><rect x="147.14" y="24.14" width="1" height="6.97" fill="#4b0062"/><rect x="133.27" y="24.14" width="1" height="6.97" fill="#4b0062"/><rect x="130.23" y="35.17" width="60.54" height="5.61" fill="#4b0062"/><path d="m191.27,41.27h-61.54v-6.61h61.54v6.61Zm-60.54-1h59.54v-4.61h-59.54v4.61Z" fill="#4b0062"/><path d="m150.14,42.01c0,4.89-3.97,8.86-8.86,8.86s-8.86-3.97-8.86-8.86h0c0-.41.03-.82.09-1.23h17.54c.06.41.09.82.09,1.23Z" fill="#fff0dc"/><path d="m141.28,51.37c-5.17,0-9.35-4.19-9.36-9.36,0-.44.03-.87.1-1.3l.06-.43h18.4l.06.43c.07.43.1.86.1,1.3,0,5.17-4.19,9.35-9.36,9.36Zm-8.33-10.09v.73c0,4.62,3.74,8.36,8.36,8.36s8.36-3.74,8.36-8.36v-.73h-16.72Z" fill="#4b0062"/><path d="m142.53,41.93c.27,2.19-1.29,4.19-3.48,4.46-2.19.27-4.19-1.29-4.46-3.48-.04-.32-.04-.65,0-.98,0-.39.06-.78.17-1.16h7.6c.11.38.17.77.17,1.16Z" fill="#f44b1b"/><path d="m138.56,46.41c-2.47,0-4.47-2-4.47-4.47h0c0-.44.06-.88.19-1.3l.11-.36h8.34l.11.36c.13.42.19.86.19,1.3,0,2.47-2,4.47-4.47,4.47h0Zm-3.41-5.13c-.04.22-.06.44-.06.66,0,1.92,1.55,3.47,3.47,3.47s3.47-1.55,3.47-3.47c0-.22-.02-.44-.06-.66h-6.82Z" fill="#4b0062"/><path d="m183.85,42.01c0,4.89-3.97,8.86-8.86,8.86s-8.86-3.97-8.86-8.86h0c0-.41.03-.82.09-1.23h17.51c.07.41.11.82.12,1.23Z" fill="#fff0dc"/><path d="m174.99,51.37c-5.17,0-9.35-4.19-9.36-9.36,0-.44.03-.88.1-1.31l.06-.42h18.4l.06.43c.07.43.1.86.1,1.3,0,5.17-4.19,9.35-9.36,9.36Zm-8.33-10.09v.73c0,4.62,3.74,8.36,8.36,8.36s8.36-3.74,8.36-8.36v-.73h-16.72Z" fill="#4b0062"/><path d="m176.24,41.93c.29,2.19-1.25,4.2-3.44,4.49-2.19.29-4.2-1.25-4.49-3.44-.05-.35-.05-.71,0-1.06,0-.39.06-.78.17-1.16h7.59c.11.38.17.77.17,1.16Z" fill="#f44b1b"/><path d="m172.27,46.41c-2.46,0-4.46-2.01-4.46-4.47,0-.44.06-.88.19-1.3l.11-.36h8.34l.11.36c.12.42.18.85.17,1.29,0,2.47-1.99,4.47-4.46,4.48h0Zm-3.4-5.13c-.35,1.88.88,3.69,2.76,4.04,1.88.35,3.69-.88,4.04-2.76.08-.42.08-.86,0-1.28h-6.8Z" fill="#4b0062"/><rect x="134.59" y="84.21" width="55.03" height="1" fill="#4b0062"/><rect x="141.88" y="80.3" width="9.64" height="4.41" fill="#fff0dc"/><path d="m152.02,85.21h-10.64v-5.41h10.64v5.41Zm-9.64-1h8.64v-3.41h-8.64v3.41Z" fill="#4b0062"/><rect x="169.55" y="80.3" width="9.64" height="4.41" fill="#fff0dc"/><path d="m179.73,85.21h-10.68v-5.41h10.68v5.41Zm-9.64-1h8.64v-3.41h-8.64v3.41Z" fill="#4b0062"/><rect x="175.09" y="93.55" width="34.39" height="1" transform="translate(-18.17 133.11) rotate(-36.58)" fill="#4b0062"/><rect x="200.86" y="82.93" width="1" height="8.8" transform="translate(-9.98 146.55) rotate(-39.1)" fill="#4b0062"/><rect x="192.99" y="89.03" width="1" height="8.8" transform="translate(-15.59 142.95) rotate(-39.1)" fill="#4b0062"/><rect x="185.11" y="95.09" width="1" height="8.8" transform="translate(-21.18 139.3) rotate(-39.09)" fill="#4b0062"/><path d="m176.73,295.77v32.36h-12.51v-8.08l-2.29,2.29-5.79,5.79h-50.55v-18c0-3.36,2.72-6.08,6.08-6.08h21.49v-8.24l43.57-.04Z" fill="#a26bb4"/><path d="m177.21,328.63h-13.48v-7.37l-7.37,7.37h-51.27v-18.54c0-3.63,2.95-6.57,6.58-6.58h21v-8.24h44.55v33.36Zm-12.5-1h11.49v-31.36h-42.55v8.24h-22c-3.08,0-5.57,2.5-5.58,5.58v17.54h49.85l8.79-8.79v8.79Z" fill="#4b0062"/><path d="m247.82,310.09v18h-50.55l-5.78-5.79-2.29-2.29v8.08h-12.47v-32.32h43.54v8.24h21.46c3.36,0,6.08,2.71,6.09,6.07h0Z" fill="#a26bb4"/><path d="m248.32,328.63h-51.26l-7.33-7.37v7.37h-13.52v-33.36h44.52v8.24h21c3.63,0,6.57,2.95,6.58,6.58v18.54Zm-50.83-1h49.84v-17.54c0-3.08-2.5-5.57-5.58-5.58h-22.01v-8.24h-42.52v31.36h11.52v-8.79l8.75,8.79Z" fill="#4b0062"/><path d="m274.82,124.54c-1.76-4.79-6.14-8.12-11.23-8.53l-26.74-72.54h0c5.1-5.13,5.09-13.42-.04-18.53-2.2-2.19-5.1-3.52-8.19-3.77l4.56,12.37-10.35,3.82-4.56-12.37c-5.11,5.13-5.08,13.43.05,18.54,2.19,2.18,5.09,3.52,8.17,3.77h0l26.74,72.54h0c-5.1,5.13-5.09,13.42.04,18.53,2.2,2.19,5.1,3.52,8.19,3.77l-4.56-12.37,10.35-3.84,4.56,12.37c3.6-3.61,4.78-8.98,3.01-13.76Z" fill="#4b0062"/><path d="m262.2,142.7l-.78-.06c-7.49-.6-13.07-7.16-12.46-14.65.25-3.1,1.56-6.03,3.7-8.28l-26.53-71.94c-7.47-.8-12.89-7.5-12.09-14.97.33-3.08,1.7-5.96,3.88-8.16l.55-.55,4.66,12.63,9.41-3.47-4.66-12.64.78.06c7.49.6,13.07,7.16,12.46,14.65-.25,3.1-1.56,6.03-3.7,8.28l26.53,71.94c7.47.8,12.89,7.5,12.09,14.97-.33,3.08-1.7,5.96-3.88,8.16l-.55.55-4.66-12.63-9.41,3.47,4.66,12.64Zm-44.12-116.77c-4.59,5.24-4.07,13.2,1.17,17.79,2.03,1.78,4.59,2.86,7.28,3.09h.32l27,73.13-.23.23c-4.92,4.92-4.92,12.9,0,17.82,1.92,1.92,4.42,3.17,7.11,3.56l-4.45-12.08,11.29-4.17,4.45,12.08c3.04-3.47,3.95-8.34,2.35-12.67h0c-1.7-4.6-5.91-7.79-10.8-8.2h-.32l-27-73.14.3-.29c4.87-4.98,4.79-12.96-.19-17.83-1.91-1.87-4.36-3.08-7.01-3.47l4.45,12.08-11.29,4.17-4.43-12.1Z" fill="#4b0062"/><path d="m323.92,55.87v41.92c-.02,5.61-4.58,10.15-10.19,10.14h-72.36c-5.62,0-10.17-4.55-10.17-10.17h0v-41.89h92.72Z" fill="#f48001"/><path d="m313.73,108.46h-72.36c-5.88-.02-10.63-4.79-10.64-10.67v-42.42h93.72v42.42c0,5.9-4.79,10.68-10.69,10.67-.01,0-.02,0-.03,0Zm-82-52.09v41.42c0,5.34,4.33,9.66,9.67,9.67h72.33c5.34,0,9.66-4.33,9.67-9.67v-41.42h-91.67Z" fill="#4b0062"/><path d="m268.6,55.87v52.06h-27.23c-5.62,0-10.17-4.55-10.17-10.17h0v-41.89h37.4Z" fill="#fff0dc"/><path d="m269.1,108.46h-27.73c-5.88-.02-10.63-4.79-10.64-10.67v-42.42h38.4l-.03,53.09Zm-37.37-52.09v41.42c0,5.34,4.33,9.66,9.67,9.67h26.73v-51.09h-36.4Z" fill="#4b0062"/><rect x="176.21" y="209.51" width="1" height="86.26" fill="#a26bb4"/><rect x="231.2" y="68.4" width="19.81" height="1" fill="#4b0062"/><rect x="231.2" y="81.42" width="19.81" height="1" fill="#4b0062"/><rect x="231.2" y="94.44" width="19.81" height="1" fill="#4b0062"/><rect x="11.18" y="131.31" width="19.81" height="1" fill="#4b0062"/><rect x="11.18" y="143.51" width="19.81" height="1" fill="#4b0062"/><rect x="11.18" y="155.71" width="19.81" height="1" fill="#4b0062"/><path d="m206.39,55.71h5.19c1.6,0,2.89,1.29,2.89,2.89h0v4.66c0,1.6-1.29,2.89-2.89,2.89h-5.19v-10.44h0Z" fill="#4b0062"/><path d="m211.57,66.65h-5.69v-11.44h5.69c1.87,0,3.39,1.52,3.39,3.39h0v4.66c0,1.87-1.52,3.39-3.39,3.39h0Zm-4.69-1h4.69c1.32,0,2.39-1.07,2.39-2.39h0v-4.66c0-1.32-1.07-2.39-2.39-2.39h-4.69v9.44Z" fill="#4b0062"/><polygon points="105.59 322.34 161.93 322.34 156.14 328.13 105.59 328.13 105.59 322.34" fill="#4b0062"/><path d="m156.35,328.63h-51.26v-6.79h58l-6.74,6.79Zm-50.26-1h49.84l4.79-4.79h-54.63v4.79Z" fill="#4b0062"/><rect x="164.22" y="322.34" width="12.49" height="5.79" fill="#4b0062"/><path d="m177.21,328.63h-13.48v-6.79h13.49v6.79Zm-12.5-1h11.49v-4.79h-11.48v4.79Z" fill="#4b0062"/><rect x="176.71" y="322.34" width="12.49" height="5.79" fill="#4b0062"/><path d="m189.73,328.63h-13.52v-6.79h13.52v6.79Zm-12.49-1h11.49v-4.79h-11.52l.03,4.79Z" fill="#4b0062"/><polygon points="247.82 322.34 247.82 328.13 197.27 328.13 191.49 322.34 247.82 322.34" fill="#4b0062"/><path d="m248.32,328.63h-51.26l-6.78-6.79h58l.04,6.79Zm-50.84-1h49.84v-4.79h-54.59l4.75,4.79Z" fill="#4b0062"/><rect x="176.21" y="322.34" width="1" height="5.79" fill="#a26bb4"/><rect x="25.24" y="102.66" width="10.98" height="72.72" fill="#4b0062"/><path d="m36.73,175.93h-12v-73.77h12v73.77Zm-11-1h10v-71.77h-10v71.77Z" fill="#4b0062"/><ellipse cx="30.73" cy="64.39" rx="30.23" ry="43.99" fill="#4b0062"/><path d="m30.73,108.93C13.78,108.93,0,88.93,0,64.44S13.79,19.93,30.73,19.93s30.73,20,30.73,44.49-13.78,44.51-30.73,44.51Zm0-88C14.34,20.93,1,40.44,1,64.42s13.34,43.51,29.73,43.51,29.73-19.51,29.73-43.49-13.33-43.51-29.73-43.51Z" fill="#4b0062"/><ellipse cx="30.73" cy="64.39" rx="24.41" ry="35.52" fill="#fff0dc"/><path d="m30.73,100.41c-13.73,0-24.91-16.16-24.91-36S16.99,28.41,30.73,28.41s24.91,16.16,24.91,36-11.17,36-24.91,36Zm0-71c-13.18,0-23.91,15.71-23.91,35s10.73,35,23.91,35,23.91-15.71,23.91-35-10.72-35.03-23.91-35.03v.03Z" fill="#4b0062"/><rect x="11.27" y="62.24" width="37.75" height="1" transform="translate(-38.75 52.83) rotate(-56.15)" fill="#4b0062"/><rect x="17.86" y="53.26" width="16.98" height="1" transform="translate(-32.37 42.06) rotate(-52.62)" fill="#4b0062"/></svg>