<?xml version="1.0" encoding="UTF-8"?>
<svg xmlns="http://www.w3.org/2000/svg" viewBox="0 0 304 354.19">
  <g class="boo">
    <path d="m183.56,44.2c1.87-.27,3.49.71,4.85,2.93s1.42,4.15.19,5.8c2.91-1.17,4.91-.14,6,3.07,1.09,3.21-1.03,6.21-6.37,9-3.52-5.78-7.17-11.72-10.94-17.81,1.81-1.49,3.97-2.52,6.27-2.99Zm-2,4.41l3.06,4.72c2.1-1.46,2.72-2.99,1.87-4.6s-2.51-1.65-4.96-.13h.03Zm4.36,7.57l2.66,4.58c2.73-1.88,3.73-3.52,3-4.91-.73-1.39-2.63-1.29-5.69.32h.03Z" fill="#a26bb4"/>
    <path d="m203.79,51.7c-1.67,2.17-3.64,2.76-5.91,1.75-2.45-1.19-4.38-3.24-5.4-5.77-1.33-2.84-1.31-5.28.08-7.32,1.2-1.97,3.58-2.89,5.79-2.23,2.48.55,4.42,2.41,5.83,5.57,1.41,3.16,1.28,5.83-.39,8Zm-2.06-2.76c.76-1.35.76-3,0-4.35-.59-1.54-1.88-2.7-3.47-3.13-1.26-.46-2.66.19-3.12,1.45-.03.09-.06.19-.08.28-.56,1.54-.31,3.26.67,4.58.68,1.26,1.83,2.21,3.2,2.62,1.15.2,2.3-.39,2.8-1.45Z" fill="#a26bb4"/>
    <path d="m215.89,44.48c-1.67,2.17-3.64,2.76-5.91,1.75-2.45-1.19-4.38-3.24-5.4-5.77-1.33-2.84-1.31-5.28.08-7.32,1.2-1.97,3.58-2.89,5.79-2.23,2.48.55,4.42,2.41,5.83,5.57,1.41,3.16,1.28,5.83-.39,8Zm-2.06-2.71c.76-1.35.76-3,0-4.35-.59-1.54-1.88-2.7-3.47-3.13-1.26-.46-2.66.19-3.12,1.45-.03.09-.06.19-.08.28-.58,1.54-.34,3.27.63,4.6.68,1.26,1.83,2.21,3.2,2.62,1.17.22,2.34-.39,2.84-1.47Z" fill="#a26bb4"/>
    <path d="m223.73,34.7c-2.59-4.21-4.97-7.98-7.12-11.31l2.92-1.94c2.61,4.97,4.73,8.93,6.36,11.88l-2.16,1.37Zm2.4,4.9c-.79-1.17-1.45-2.17-2-3l3.05-2,1.75,3.26-2.8,1.74Z" fill="#a26bb4"/>
  </g>
  <g class="arm">
    <path d="m238.49,127.61h-109.67l56.91,136.61,74.43-90.85c14.98-18.29,1.97-45.76-21.67-45.76Z" fill="#fff0dc"/>
    <path d="m185.59,265.18l75-91.5c9.97-12.18,8.18-30.15-4-40.12-5.09-4.17-11.47-6.45-18.05-6.45h-110.49l.29.69,57.25,137.38Zm52.9-137.07c15.19-.03,27.53,12.27,27.56,27.46.01,6.37-2.19,12.55-6.23,17.48l-73.9,90.21-56.32-135.15h108.89Z" fill="#4b0062"/>
  </g>
  <g class="pumpkin">
    <path d="m260.46,246.06c24,0,43.54-19.77,43.54-44.08s-19.53-44.08-43.54-44.08-43.54,19.77-43.54,44.08,19.53,44.08,43.54,44.08Zm0-87.16c23.45,0,42.54,19.33,42.54,43.08s-19.08,43.08-42.54,43.08-42.54-19.33-42.54-43.08,19.08-43.08,42.54-43.08Z" fill="#4b0062"/>
    <path d="m217.43,201.98c0,24.07,19.26,43.58,43,43.58s43-19.51,43-43.58c0-3.04-.31-6.08-.93-9.06h-84.21c-.6,2.98-.89,6.02-.86,9.06Z" fill="#f48001"/>
    <path d="m260.46,246.06c24,0,43.54-19.77,43.54-44.08,0-3.08-.31-6.15-.94-9.16l-.08-.4h-85l-.08.4c-.63,3.01-.94,6.08-.94,9.16-.03,24.3,19.49,44.08,43.5,44.08Zm41.7-52.64c.56,2.82.84,5.69.84,8.56,0,23.75-19.08,43.08-42.54,43.08s-42.53-19.33-42.53-43.08c0-2.87.28-5.74.84-8.56h83.39Z" fill="#4b0062"/>
    <path d="m230.41,201.98c0,24.07,13.45,43.58,30,43.58s30.05-19.51,30.05-43.58c0-3.03-.21-6.06-.65-9.06h-58.8c-.42,3-.62,6.03-.6,9.06Z" fill="#f48001"/>
    <path d="m260.46,246.06c16.85,0,30.55-19.77,30.55-44.08,0-3.06-.22-6.11-.66-9.13l-.06-.43h-59.67l-.06.43c-.44,3.02-.66,6.07-.66,9.13.01,24.3,13.71,44.08,30.56,44.08Zm29-52.64c.39,2.84.58,5.7.58,8.56,0,23.75-13.26,43.08-29.55,43.08s-29.55-19.33-29.55-43.08c0-2.86.19-5.72.58-8.56h57.94Z" fill="#4b0062"/>
    <polygon points="274.43 200.79 280.51 211.33 268.34 211.33 274.43 200.79" fill="#4b0062"/>
    <polygon points="246.48 200.79 252.57 211.33 240.4 211.33 246.48 200.79" fill="#4b0062"/>
    <path d="m234.04,211.8c1.23,13.67,12.69,24.15,26.42,24.14.75,0,1.49,0,2.23-.1,2.39-.18,4.75-.7,7-1.53,9.64-3.5,16.37-12.28,17.24-22.5-2.29,3.37-5.29,6.2-8.79,8.29-2.18,1.33-4.51,2.4-6.95,3.17-2.99.97-6.09,1.51-9.23,1.62h-1.45c-1.84,0-3.68-.14-5.5-.43-2.27-.35-4.5-.93-6.65-1.74-2.48-.91-4.83-2.13-7-3.63-2.87-1.96-5.35-4.43-7.32-7.29Z" fill="#4b0062"/>
    <path d="m271.14,223.27v2.46h6.95v-5.63c-2.18,1.33-4.51,2.4-6.95,3.17Z" fill="#f48001"/>
    <path d="m254.96,224.49v3h7v-2.6h-1.45c-1.86.01-3.71-.12-5.55-.4Z" fill="#f48001"/>
    <path d="m241.35,219.13v4.92h7v-1.29c-2.48-.91-4.83-2.13-7-3.63Z" fill="#f48001"/>
    <path d="m247.53,230.14v2.46c2.19,1.22,4.55,2.11,7,2.66v-5.12h-7Z" fill="#f48001"/>
    <path d="m262.69,230.74v5.1c2.39-.18,4.75-.7,7-1.53v-3.57h-7Z" fill="#f48001"/>
    <rect x="259.96" y="192.92" width="1" height="52.64" fill="#4b0062"/>
  </g>
  <g class="l-leg">
    <rect x="33.37" y="290.99" width="70.78" height="37.28" transform="translate(-246.83 277.97) rotate(-71.75)" fill="#a26bb4"/>
    <path d="m75.68,349.69l.16-.48,22.33-67.7-36.35-12-.16.48-22.33,67.7,36.35,12Zm21.22-67.5l-21.86,66.24-34.45-11.36,21.86-66.28,34.45,11.4Z" fill="#4b0062"/>
    <rect x="53.67" y="301.91" width="22.98" height="37.28" transform="translate(-259.67 282.05) rotate(-71.75)" fill="#fff0dc"/>
    <path d="m79.57,337.9l7.47-22.77-36.35-12-7.51,22.77,36.39,12Zm6.25-22.14l-6.88,20.87-34.45-11.36,6.88-20.87,34.45,11.36Z" fill="#4b0062"/>
    <rect x="64.29" y="297.8" width="4.44" height="37.28" transform="translate(-254.84 280.51) rotate(-71.75)" fill="#4b0062"/>
    <path d="m83.83,324.98l1.7-5.17-36.35-12-1.7,5.16,36.35,12.01Zm.44-4.53l-1.08,3.26-34.45-11.36,1.08-3.26,34.45,11.36Z" fill="#4b0062"/>
    <path d="m39.96,337.38l3.89-11.79,20.41,6.73,1.09-3.3c.72-2.19,3.08-3.38,5.27-2.66l11,3.64-1.41,4.29c7.41,3.21,11.16,11.54,8.63,19.21l-27.47-9.06h0l-21.41-7.06Z" fill="#f44b1b"/>
    <path d="m89.18,354.19l.16-.48c2.61-7.75-1.06-16.23-8.49-19.64l1.43-4.34-11.5-3.79c-2.46-.81-5.1.53-5.91,2.99,0,0,0,0,0,.01l-.93,2.82-20.41-6.73-4.2,12.74,49.85,16.42Zm-8.14-23.86l-1.4,4.25.42.18c7.04,2.99,10.7,10.8,8.5,18.12l-47.94-15.81,3.55-10.88,20.41,6.73,1.24-3.73c.64-1.93,2.71-2.97,4.64-2.34l10.58,3.48Z" fill="#4b0062"/>
  </g>
  <g class="r-leg">
    <rect x="106.18" y="281.08" width="37.28" height="70.78" fill="#a26bb4"/>
    <path d="m105.68,352.36h38.28v-71.78h-38.28v71.78Zm37.28-1h-36.28v-69.78h36.28v69.78Z" fill="#4b0062"/>
    <rect x="106.18" y="316.47" width="37.28" height="22.98" fill="#fff0dc"/>
    <path d="m105.68,339.99h38.28v-24h-38.28v24Zm37.28-1h-36.28v-22h36.28v22Z" fill="#4b0062"/>
    <rect x="106.18" y="321.41" width="37.28" height="4.44" fill="#4b0062"/>
    <path d="m105.68,326.35h38.28v-5.44h-38.28v5.44Zm37.28-1h-36.28v-3.44h36.28v3.44Z" fill="#4b0062"/>
    <path d="m127.67,339.45v-3.46c0-2.31,1.87-4.18,4.18-4.18h11.61v4.52c8.04.72,14.21,7.46,14.21,15.54h-51.49v-12.42h21.49Z" fill="#f44b1b"/>
    <path d="m105.68,352.36h52.49v-.5c.05-8.18-6.08-15.08-14.21-16v-4.57h-12.11c-2.58,0-4.68,2.1-4.68,4.68v3h-21.49v13.39Zm51.48-1h-50.48v-11.37h21.49v-4c0-2.03,1.65-3.68,3.68-3.68h11.11v4.47h.46c7.63.64,13.55,6.93,13.74,14.58Z" fill="#4b0062"/>
  </g>
  <g class="body">
    <path d="m45.85,17.88c1.49-9.48,9.33-16.67,18.9-17.33h0c11.33-.8,21.16,7.75,21.96,19.08.05.71.06,1.42.04,2.13l-1.4,41.73c7.92-5.93,17.6-9.04,27.5-8.83h0c21.13.41,39.05,15.64,42.87,36.42l39.54,215.21H.58L45.85,17.88Z" fill="#fff0dc"/>
    <path d="m0,306.79h195.85l-.11-.59-39.56-215.21c-3.92-20.98-21.99-36.35-43.33-36.83-9.67-.23-19.15,2.69-27,8.33l1.37-40.71C87.61,10.15,78.51.41,66.88.01c-10.63-.36-19.87,7.26-21.53,17.77L0,306.79Zm194.67-1H1.17L46.36,17.99C48.1,7.05,58.39-.41,69.34,1.33c9.98,1.59,17.22,10.35,16.9,20.45l-1.39,42.74.83-.62c7.82-5.88,17.39-8.96,27.17-8.74,20.87.46,38.55,15.48,42.39,36l39.43,214.63Z" fill="#4b0062"/>
    <line x1="78.37" y1="271.03" x2="80.95" y2="194.35" fill="none"/>
    <rect x="42.3" y="234.02" width="76.76" height="1" transform="translate(-156.16 308.13) rotate(-88.28)" fill="#4b0062"/>
    <path d="m82.97,133.99l3.77-112.27c.38-11.35-8.51-20.87-19.87-21.25-.71-.02-1.42-.01-2.13.04h0c-9.58.67-17.42,7.88-18.89,17.37" fill="#fff0dc"/>
    <path d="m83.47,134.05l3.77-112.27C87.63,10.15,78.53.41,66.9.01c-10.63-.36-19.87,7.26-21.53,17.77l1,.15C48.11,6.99,58.4-.47,69.35,1.27c9.98,1.59,17.22,10.35,16.9,20.45l-3.78,112.27,1,.06Z" fill="#4b0062"/>
    <line x1="44.22" y1="257.6" x2="39.78" y2="306.29" fill="none"/>
    <rect x="17.55" y="281.44" width="48.89" height="1" transform="translate(-242.59 298.16) rotate(-84.79)" fill="#4b0062"/>
    <line x1="171.12" y1="306.29" x2="152.53" y2="205.22" fill="none"/>
    <rect x="161.35" y="204.35" width="1" height="102.76" transform="translate(-43.74 33.63) rotate(-10.46)" fill="#4b0062"/>
  </g>
  <g class="eyes">
    <circle cx="133.82" cy="98.7" r="8.63" fill="#4b0062"/>
    <path d="m133.85,107.83c5.04,0,9.13-4.09,9.13-9.13s-4.09-9.13-9.13-9.13c-5.04,0-9.13,4.09-9.13,9.13,0,5.04,4.09,9.12,9.13,9.13Zm0-17.26c4.49,0,8.13,3.64,8.13,8.13s-3.64,8.13-8.13,8.13c-4.49,0-8.13-3.64-8.13-8.13,0-4.49,3.64-8.12,8.13-8.13Z" fill="#4b0062"/>
    <circle cx="102.31" cy="98.7" r="8.63" fill="#4b0062"/>
    <path d="m102.31,107.83c5.04,0,9.13-4.09,9.13-9.13s-4.09-9.13-9.13-9.13c-5.04,0-9.13,4.09-9.13,9.13,0,5.04,4.09,9.12,9.13,9.13Zm0-17.26c4.49,0,8.13,3.64,8.13,8.13s-3.64,8.13-8.13,8.13c-4.49,0-8.13-3.64-8.13-8.13,0-4.49,3.64-8.12,8.13-8.13Z" fill="#4b0062"/>
  </g>
</svg>