<?xml version="1.0" encoding="UTF-8"?><svg id="grim-reaper" xmlns="http://www.w3.org/2000/svg" viewBox="-25 0 250 300"><rect x="22.35" y="22.63" width="1.6" height="292.85" transform="translate(-25.45 5.49) rotate(-8.75)" fill="#4b0062"/><path d="m98.63,116.52v25.3H2.32v-17.26c0-4.41,3.58-7.99,7.99-7.99l88.32-.05Z" fill="#4b0062"/><path d="m99.43,142.62H1.52v-18.06c0-4.88,3.96-8.84,8.84-8.84h89.07v26.9Zm-96.31-1.6h94.71v-23.71H10.36c-4,0-7.24,3.24-7.24,7.24v16.46Z" fill="#4b0062"/><path d="m167.43,294.05l-33.14-175.69c11.11-8.91,17.53-22.41,17.42-36.65,0-21.39-13.91-39.34-32.67-44.23-6.69-1.74-13.72-1.74-20.41,0v-.18l-.42.29c-.69.18-1.37.35-2.05.58-8.87,2.93-16.55,8.66-21.88,16.32h0l-28.1,37.71h-17.23l27.4,42.74h21.55l-30,159.12h119.54Z" fill="#4b0062"/><path d="m168.39,294.85H46.9l.18-.94,29.83-158.17h-20.99l-28.44-44.28h18.3l27.89-37.53c5.45-7.76,13.25-13.57,22.25-16.56.56-.19,1.15-.34,1.73-.5h.21l1.6-1.1v.7c6.53-1.5,13.33-1.41,19.82.29,19.58,5.1,33.27,23.61,33.27,45,.06,14.3-6.31,27.88-17.34,36.97l33.19,176.13Zm-119.54-1.6h117.6l-33.04-175.22.38-.3c10.89-8.78,17.19-22.04,17.12-36.03,0-20.67-13.19-38.54-32.08-43.46-6.56-1.7-13.45-1.7-20.01,0l-.75.21c-.56.14-1.1.29-1.6.48-8.69,2.89-16.21,8.49-21.47,15.99l-.13.18-28.28,37.97h-16.19l26.38,41.08h22.08l-.18.94-29.83,158.17Z" fill="#4b0062"/><rect x="10.36" y="115.72" width="71.97" height="1.6" fill="#a26bb4"/><path d="m73.07,80.86c0-18.27,15.84-33.09,35.38-33.09s35.38,14.82,35.38,33.09c-.1,10.7-5.49,20.66-14.39,26.62v10.05c0,2.12-1.72,3.84-3.84,3.84h0c-2.12,0-3.84-1.72-3.84-3.84h0c0,2.12-1.73,3.83-3.85,3.83-2.11,0-3.82-1.72-3.83-3.83h0c0,2.12-1.71,3.84-3.83,3.85s-3.84-1.71-3.85-3.83v-.02h0c0,2.12-1.72,3.84-3.84,3.84s-3.84-1.72-3.84-3.84h0c0,2.12-1.72,3.84-3.84,3.84s-3.84-1.72-3.84-3.84v-7.99c-10.86-5.48-17.79-16.52-18-28.68Z" fill="#fff0dc"/><path d="m125.63,122.18c-1.56,0-3.01-.78-3.87-2.08-1.42,2.13-4.29,2.71-6.43,1.29-.51-.34-.95-.78-1.29-1.29-1.4,2.13-4.27,2.72-6.4,1.32-.53-.35-.98-.8-1.32-1.32-1.4,2.13-4.27,2.72-6.4,1.32-.53-.35-.98-.8-1.32-1.32-1.42,2.13-4.3,2.7-6.43,1.27-1.28-.86-2.05-2.29-2.06-3.83v-7.47c-10.82-5.77-17.63-16.97-17.78-29.22,0-18.69,16.23-33.89,36.17-33.89s36.17,15.2,36.17,33.89c-.13,10.81-5.5,20.88-14.39,27.03v9.59c.04,2.56-2.01,4.66-4.57,4.7-.03,0-.06,0-.1,0Zm-4.68-5.43h1.6v.8c-.12,1.67,1.14,3.13,2.81,3.25,1.67.12,3.13-1.14,3.25-2.81.01-.15.01-.29,0-.44v-10.49l.35-.24c8.65-5.83,13.88-15.53,14.02-25.96,0-17.81-15.51-32.29-34.58-32.29s-34.46,14.48-34.46,32.29c.19,11.84,6.88,22.61,17.41,28.02l.42.22v8.42c-.12,1.67,1.14,3.13,2.81,3.25,1.67.12,3.13-1.14,3.25-2.81.01-.15.01-.29,0-.44v-.8h1.6v.8c0,1.68,1.36,3.04,3.04,3.04s3.04-1.36,3.04-3.04v-.8h1.6v.8c-.12,1.67,1.14,3.13,2.81,3.25,1.67.12,3.13-1.14,3.25-2.81.01-.15.01-.29,0-.44v-.8h1.6v.8c0,1.68,1.35,3.04,3.03,3.04,1.68,0,3.04-1.35,3.04-3.03v-.02l.13-.78Z" fill="#4b0062"/><path d="m125.61,122.18c-2.56,0-4.64-2.07-4.65-4.64v-5.87h1.6v5.87c0,1.69,1.37,3.06,3.06,3.06s3.06-1.37,3.06-3.06v-10.05h1.6v10.05c0,2.57-2.1,4.64-4.67,4.64h0Z" fill="#4b0062"/><path d="m117.89,122.18c-2.56,0-4.64-2.07-4.65-4.64v-5.88h1.6v5.88c0,1.69,1.38,3.05,3.07,3.04.8,0,1.57-.33,2.14-.89.57-.57.9-1.34.9-2.14h1.6c-.02,1.2-.51,2.35-1.37,3.2-.86.9-2.04,1.42-3.28,1.44Z" fill="#4b0062"/><path d="m110.19,122.18c-2.56,0-4.64-2.07-4.65-4.64v-5.88h1.6v5.88c0,1.69,1.37,3.05,3.05,3.05s3.05-1.37,3.05-3.05h1.6c0,2.56-2.09,4.64-4.65,4.64Z" fill="#4b0062"/><path d="m102.47,122.18c-2.56,0-4.64-2.07-4.65-4.64v-5.88h1.6v5.88c0,1.69,1.37,3.05,3.05,3.05s3.05-1.37,3.05-3.05h1.6c0,2.56-2.09,4.64-4.65,4.64Z" fill="#4b0062"/><path d="m94.71,122.18c-2.56,0-4.64-2.07-4.65-4.64v-4.28h1.6v4.28c0,1.69,1.37,3.06,3.06,3.06s3.06-1.37,3.06-3.06h1.6c0,2.57-2.1,4.64-4.67,4.64h0Z" fill="#4b0062"/><circle cx="125.61" cy="85.22" r="8.39" fill="#f44b1b"/><path d="m125.61,94.41c-5.08,0-9.19-4.12-9.19-9.19s4.12-9.19,9.19-9.19,9.19,4.12,9.19,9.19c0,5.07-4.12,9.18-9.19,9.19Zm0-16.78c-4.19,0-7.59,3.4-7.59,7.59s3.4,7.59,7.59,7.59,7.59-3.4,7.59-7.59c0-4.19-3.4-7.58-7.59-7.59Z" fill="#4b0062"/><circle cx="101.46" cy="85.22" r="8.39" fill="#f44b1b"/><path d="m101.46,94.41c-5.08,0-9.19-4.12-9.19-9.19s4.12-9.19,9.19-9.19,9.19,4.12,9.19,9.19c0,5.07-4.12,9.18-9.19,9.19Zm0-16.78c-4.19,0-7.59,3.4-7.59,7.59s3.4,7.59,7.59,7.59,7.59-3.4,7.59-7.59c0-4.19-3.4-7.58-7.59-7.59Z" fill="#4b0062"/><polygon points="113.02 95.26 116.33 106.23 109.71 106.23 113.02 95.26" fill="#4b0062"/><path d="m21.76,116.52v25.3H2.32v-17.26c0-4.41,3.58-7.99,7.99-7.99l11.45-.05Z" fill="#fff0dc"/><path d="m22.56,142.62H1.52v-18.06c0-4.88,3.96-8.84,8.84-8.84h12.2v26.9Zm-19.44-1.6h17.84v-23.71h-10.6c-4,0-7.24,3.24-7.24,7.24v16.46Z" fill="#4b0062"/><polygon points="17.15 134.18 1.52 134.18 1.52 124.16 17.15 124.16 17.15 125.76 3.12 125.76 3.12 132.59 17.15 132.59 17.15 134.18" fill="#4b0062"/><path d="m169,55.17c0,.9,0,1.79-.1,2.67-9.4-24.91-42.71-39.63-82.37-34.06C51.28,28.71,20.99,48.26,8.2,71.87L.9,24.36C18.48,11.42,44.06,2.51,72.54,1.03c53.26-2.8,96.46,21.44,96.46,54.14Z" fill="#a26bb4"/><path d="m7.74,74.33L0,24.01l.38-.29C18.78,10.23,45.05,1.67,72.46.23c34.08-1.81,65.06,7.26,82.92,24.2,9.43,8.94,14.39,19.57,14.39,30.74,0,.91,0,1.82-.1,2.73l-.27,3.61-1.28-3.39c-9.5-25.16-43.02-38.96-81.53-33.57C52.56,29.35,22.03,48.04,8.82,72.24l-1.09,2.09ZM1.73,24.78l6.89,44.76c14-23.66,44.23-41.8,77.82-46.5,37.49-5.26,70.34,7.47,81.76,31.16-.3-10.33-5.08-20.17-13.89-28.53C136.72,9,106.19.08,72.57,1.89,45.64,3.23,19.85,11.58,1.73,24.72v.06Z" fill="#4b0062"/></svg>