<?xml version="1.0" encoding="UTF-8"?><svg id="mummy" xmlns="http://www.w3.org/2000/svg" viewBox="0 0 266.16 320.57"><polygon points="68.87 231.71 103.79 255.74 120.9 250.06 84.13 226.34 68.87 231.71" fill="#fff0dc"/><path d="m103.71,256.29l-35.93-24.73,16.41-5.77,37.86,24.42-18.34,6.08Zm-33.74-24.44l33.91,23.34,15.89-5.27-35.69-23-14.11,4.93Z" fill="#4b0062"/><path d="m265.45,307.52l-41.84-99.64-31.13,19.22,36.49,74h0c-5.76,4.19-7.95,11.75-5.32,18.37l.19.49,41.61-12.44Z" fill="#fff0dc"/><path d="m223.55,320.57l-.36-.91c-2.66-6.68-.55-14.32,5.15-18.7l-36.5-74,32.04-19.86,42.28,100.69-42.61,12.78Zm-30.42-93.28l36.47,74-.34.25c-5.57,4.06-7.69,11.37-5.15,17.78v.06l40.67-12.18-41.4-98.59-30.25,18.68Z" fill="#4b0062"/><path d="m64.54,234.54h105l-5-36.33-93.19,2v-.07c-4.18-7.9-13.92-11.01-21.91-7h0l15.1,41.4Z" fill="#fff0dc"/><path d="m170.08,235.04h-105.89l-15.46-42.13.4-.2c8.16-4.07,18.07-.98,22.47,7l93.33-2,5.15,37.33Zm-105.2-1h104l-4.88-35.32-93.05,2-.14-.27c-4.01-7.49-13.16-10.56-20.88-7l14.95,40.59Z" fill="#4b0062"/><polygon points="16.65 138.21 15.1 109.93 139.39 110.8 140.94 139.08 16.65 138.21" fill="#fff0dc"/><path d="m141.47,139.58l-125.3-.87-1.61-29.28,125.3.87,1.61,29.28Zm-124.35-1.87l123.29.86-1.53-27.28-123.29-.86,1.53,27.28Z" fill="#4b0062"/><polygon points="234.82 234.54 154.21 234.54 113.28 110.65 182.8 110.65 186 118.27 191.4 131.12 234.82 234.54" fill="#fff0dc"/><path d="m235.57,235.04h-81.69l-41.3-124.89h70.54l8.76,20.78,43.69,104.11Zm-81-1h79.5l-51.6-122.89h-68.5l40.6,122.89Z" fill="#4b0062"/><rect x="163.41" y="120.62" width="23.12" height="1" transform="translate(-17.32 29.97) rotate(-9.33)" fill="#4b0062"/><path d="m191.4,131.1l-5.46,88.28-.94,15.14-.48,7.79h-23.13c-2.7,0-4.88-2.19-4.88-4.88,0-.1,0-.2,0-.3l.16-2.61.94-15.14,6.26-101.11" fill="#fff0dc"/><path d="m184.99,242.83h-23.6c-2.97,0-5.38-2.41-5.38-5.38,0-.11,0-.22.01-.33l7.35-118.88,1,.06-7.35,118.88c-.15,2.41,1.69,4.49,4.1,4.64.09,0,.18,0,.27,0h22.66l6.83-110.73,1,.06-6.89,111.67Z" fill="#4b0062"/><path d="m185.94,219.4l-.94,15.14-.48,7.79h-23.13c-2.7,0-4.88-2.19-4.88-4.88,0-.1,0-.2,0-.3l.16-2.61.94-15.14h28.32Z" fill="#f48001"/><path d="m184.99,242.83h-23.6c-2.97,0-5.38-2.41-5.38-5.38,0-.11,0-.22.01-.33l1.13-18.22h29.32l-1.48,23.93Zm-26.9-22.93l-1.07,17.28c-.15,2.41,1.69,4.49,4.1,4.64.09,0,.18,0,.27,0h22.66l1.36-21.93h-27.32Z" fill="#4b0062"/><polygon points="231.24 125.76 192.24 82.83 184.44 100.41 209.29 130.2 231.24 125.76" fill="#fff0dc"/><path d="m209.1,130.74l-25.22-30.25,8.24-18.57,40.08,44.18-23.1,4.64Zm-24.08-30.42l24.46,29.32,20.79-4.2-37.89-41.71-7.36,16.59Z" fill="#4b0062"/><circle cx="141.21" cy="76.29" r="54.02" fill="#fff0dc"/><path d="m141.21,130.81c-30.11,0-54.52-24.41-54.52-54.52s24.41-54.52,54.52-54.52c30.11,0,54.52,24.41,54.52,54.52h0c-.04,30.09-24.43,54.48-54.52,54.52Zm0-108c-29.56,0-53.52,23.96-53.52,53.52s23.96,53.52,53.52,53.52,53.52-23.96,53.52-53.52h0c-.01-29.56-23.96-53.53-53.52-53.56v.04Z" fill="#4b0062"/><polygon points="123.45 86.14 113.28 73.54 114.95 64.57 145.82 57.42 159.16 82.35 123.45 86.14" fill="#f48001"/><path d="m123.23,86.67l-10.49-13,1.78-9.51,31.56-7.31,13.87,25.92-36.72,3.9Zm-9.42-13.26l9.85,12.21,34.71-3.68-12.81-23.94-30.18,7-1.57,8.41Z" fill="#4b0062"/><polygon points="176.95 116.64 145.38 57.66 146.26 57.19 177.83 116.17 176.95 116.64" fill="#4b0062"/><path d="m120.76,63.23c-3,10.89-13.69,13.06-13.69,13.06l1.93-10.34,11.76-2.72Z" fill="#a26bb4"/><path d="m106.44,76.93l2.13-11.39,12.89-3-.22.81c-3,11.06-14,13.4-14.07,13.42l-.73.16Zm3-10.56l-1.72,9.24c2.35-.7,9.7-3.51,12.33-11.69l-10.61,2.45Z" fill="#4b0062"/><path d="m149.54,61.67c2.73,1.35,5.67,2.19,8.7,2.48-5.65,5.65-16.29,2.68-25.12-3.79l22.86-5.26,7.37,3.76c-5.28,4.48-13.81,2.81-13.81,2.81Z" fill="#a26bb4"/><path d="m150.37,67.62c-5.59,0-12.14-2.89-17.55-6.85l-.88-.64,24.1-5.58,8.2,4.18-.57.49c-3.38,2.88-8,3.34-11,3.26,1.82.58,3.7.98,5.6,1.18l1.07.09-.76.76c-2.2,2.11-5.16,3.23-8.21,3.11Zm-16.06-7c7.63,5.3,17.2,8.31,22.77,3.92-2.72-.35-5.35-1.16-7.79-2.41l-2.7-1.52,3,.59c.08,0,7.73,1.45,12.79-2.26l-6.5-3.34-21.57,5.02Z" fill="#4b0062"/><path d="m133.42,101.02h0c.01.17.01.34,0,.51-.36,2.62-2.63,4.56-5.28,4.51-1.32,0-2.59-.47-3.58-1.33-.25-.18-.47-.39-.68-.61-2.12-1.76-5.19-1.76-7.31,0-.24.2-.46.42-.65.67-.98.85-2.24,1.33-3.54,1.33-2.84.07-5.21-2.16-5.31-5h0c-.01-.18-.01-.37,0-.55.08-.95.35-1.88.78-2.73,1-1.83,2.51-3.33,4.35-4.3,1.49-.82,3.11-1.39,4.79-1.68,1.06-.19,2.14-.29,3.22-.29.9,0,1.8.07,2.69.2,1.38.2,2.72.59,4,1.14,1.87.76,3.51,1.99,4.77,3.56.93,1.18,1.51,2.6,1.66,4.1.04.16.07.31.09.47Z" fill="#4b0062"/><path d="m128.11,106.59c-1.44,0-2.83-.51-3.91-1.46-.25-.22-.48-.45-.68-.71-1.94-1.54-4.69-1.52-6.6.06-.22.18-.41.38-.58.6-1.1.98-2.53,1.52-4,1.5-3.12.06-5.71-2.4-5.81-5.52-.01-.21-.01-.43,0-.64.09-1.02.37-2.01.83-2.92,1.04-1.92,2.62-3.49,4.55-4.51,1.54-.85,3.22-1.44,4.95-1.74,2-.36,4.06-.39,6.07-.09,1.43.21,2.82.6,4.15,1.18,1.95.79,3.67,2.07,5,3.71.99,1.25,1.6,2.77,1.76,4.36.01.2.01.39,0,.59h0c.02.2.02.4,0,.6-.37,2.88-2.83,5.02-5.73,4.99Zm-7.86-4.3c1.46-.02,2.88.49,4,1.44.19.23.4.44.62.64.9.79,2.06,1.22,3.26,1.21,2.4.05,4.45-1.7,4.78-4.07.01-.15.01-.3,0-.45h0c0-.17,0-.33,0-.5-.14-1.41-.68-2.74-1.56-3.85-1.21-1.5-2.78-2.67-4.57-3.4-1.25-.54-2.56-.91-3.9-1.1-1.91-.28-3.84-.25-5.74.09-1.63.28-3.19.84-4.64,1.63-1.76.93-3.2,2.35-4.15,4.09-.4.8-.65,1.66-.73,2.55,0,.17,0,.34,0,.51.08,2.59,2.22,4.63,4.81,4.57,1.19,0,2.33-.42,3.23-1.19.19-.25.42-.48.67-.68,1.09-.95,2.48-1.47,3.92-1.49h0Z" fill="#4b0062"/><path d="m95.3,32.27l-.72-.69c1.2-1.25,2.47-2.47,3.77-3.62l.66.75c-1.27,1.13-2.52,2.33-3.71,3.56Z" fill="#4b0062"/><path d="m79.88,59.53l-1-.26c2.36-8.7,6.53-16.8,12.24-23.77l.78.63c-5.61,6.87-9.7,14.84-12.02,23.4Z" fill="#4b0062"/><rect x="86.14" y="58.88" width="102.35" height="1" transform="translate(-9.88 32.64) rotate(-13.09)" fill="#4b0062"/><rect x="90.35" y="47.26" width="91.19" height="1" transform="translate(-6.42 25.52) rotate(-10.48)" fill="#4b0062"/><rect x="128.73" y="17.54" width="1" height="43.65" transform="translate(56.93 153.48) rotate(-74.58)" fill="#4b0062"/><rect x="109.93" y="34.07" width="1" height="26.58" transform="translate(41.34 145.67) rotate(-78.11)" fill="#4b0062"/><rect x="114.99" y="28.66" width="32.28" height="1" transform="translate(-.3 56.91) rotate(-24.46)" fill="#4b0062"/><rect x="130.2" y="33.62" width="36.82" height="1" transform="translate(-3.22 48.17) rotate(-18.22)" fill="#4b0062"/><rect x="181.78" y="47.95" width="1" height="41.79" transform="translate(-6.17 118.35) rotate(-35.41)" fill="#4b0062"/><rect x="176.08" y="50.26" width="1" height="54.57" transform="translate(-16.05 86.87) rotate(-26.48)" fill="#4b0062"/><rect x="88.71" y="85.56" width="70.67" height="1" transform="translate(-8.39 13.58) rotate(-6.06)" fill="#4b0062"/><rect x="96.29" y="99.88" width="69.56" height="1" transform="translate(-17.23 27.84) rotate(-11.38)" fill="#4b0062"/><path d="m124.98,128.03l-.37-.33-.49.13q-.08-.29,15.33-16.55l15.22-16.06.73.69c-.31.32-29.96,31.59-30.42,32.12Z" fill="#4b0062"/><rect x="136.37" y="113.57" width="39.51" height="1" transform="translate(-26.93 176.34) rotate(-54.94)" fill="#4b0062"/><rect x="159.43" y="115.14" width="18.97" height="1" transform="translate(1.75 233.8) rotate(-69.65)" fill="#4b0062"/><rect x="106.78" y="113.97" width="34.37" height="1" transform="translate(-22.22 30.21) rotate(-12.76)" fill="#4b0062"/><rect x="175.72" y="58.74" width="17.16" height="1" transform="translate(34.81 182.24) rotate(-57.26)" fill="#4b0062"/><rect x="178.76" y="64.09" width="19.41" height="1" transform="translate(77.1 229.78) rotate(-74.93)" fill="#4b0062"/><rect x="181.86" y="71.24" width="21.3" height="1" transform="translate(110.34 260.03) rotate(-86.86)" fill="#4b0062"/><polygon points="87.67 82.1 87.23 81.2 107.7 71.27 108.14 72.17 87.67 82.1" fill="#4b0062"/><polygon points="107.57 88.14 96.61 77.39 97.31 76.68 108.27 87.43 107.57 88.14" fill="#4b0062"/><path d="m150.66,74.1c-1.42,5.83-7.3,9.41-13.13,8s-9.41-7.3-8-13.13c.38-1.57,1.11-3.03,2.13-4.29l3,1.49,9.25,4.59,6.75,3.34Z" fill="#fff0dc"/><path d="m140.1,82.91c-6.29,0-11.37-5.11-11.37-11.39,0-2.59.89-5.11,2.52-7.13l.25-.31,19.74,9.78-.1.39c-1.24,5.09-5.8,8.67-11.04,8.66Zm-8.31-17.58c-3.42,4.6-2.47,11.1,2.12,14.52,1.79,1.33,3.96,2.05,6.19,2.06,4.64.02,8.73-3.05,10-7.52l-18.31-9.06Z" fill="#4b0062"/><path d="m143.88,70.78c-.26,3.05-2.95,5.32-6,5.06s-5.32-2.95-5.06-6c.12-1.4.77-2.7,1.81-3.65l9.25,4.59Z" fill="#f44b1b"/><path d="m138.39,76.34c-3.32,0-6.03-2.68-6.06-6,0-1.71.73-3.33,2-4.47l.25-.23,9.86,4.89v.34c-.31,3.11-2.93,5.48-6.05,5.47Zm-3.64-9.55c-.91.94-1.42,2.19-1.42,3.5.11,2.79,2.46,4.96,5.25,4.85,2.33-.09,4.3-1.77,4.75-4.07l-8.58-4.28Z" fill="#4b0062"/><rect x="140.74" y="54.06" width="1" height="30.81" transform="translate(16.28 165.17) rotate(-63.64)" fill="#4b0062"/><rect x="172.17" y="4.05" width="9.64" height="1" transform="translate(95.15 161.54) rotate(-63.94)" fill="#4b0062"/><rect x="182.32" y="9.46" width="11.59" height="1" transform="translate(39.85 126.17) rotate(-41.12)" fill="#4b0062"/><rect x="192.22" y="18.16" width="11.09" height="1" transform="translate(3.63 60.74) rotate(-17.62)" fill="#4b0062"/><path d="m122.94,91.67v4.43h-5.91v-4.34c1.06-.19,2.14-.29,3.22-.29.9,0,1.8.07,2.69.2Z" fill="#fff0dc"/><path d="m123.44,96.6h-6.91v-5.26l.41-.08c2.01-.36,4.06-.39,6.08-.09l.43.06v5.37Zm-5.92-1h4.91v-3.5c-1.63-.2-3.29-.18-4.91.08v3.42Z" fill="#4b0062"/><path d="m114.29,96.99l-5.12,3-1.29-2.25c1-1.83,2.51-3.33,4.35-4.3l2.06,3.55Z" fill="#fff0dc"/><path d="m108.98,100.64l-1.67-2.88.12-.24c1.04-1.92,2.62-3.49,4.55-4.51l.43-.24,2.55,4.41-5.98,3.46Zm-.53-2.9l.89,1.54,4.25-2.46-1.54-2.72c-1.49.88-2.73,2.13-3.59,3.63h0Z" fill="#4b0062"/><path d="m131.73,96.37l-1.94,3.36-5.12-3,2.29-4c1.87.79,3.52,2.04,4.77,3.64Z" fill="#fff0dc"/><path d="m129.97,100.42l-6-3.45,2.76-4.79.41.18c1.95.79,3.67,2.07,5,3.71l.2.26-2.37,4.09Zm-4.62-3.82l4.25,2.45,1.52-2.63c-1.1-1.28-2.46-2.31-4-3l-1.77,3.18Z" fill="#4b0062"/><rect x="211.3" y="153.77" width="1" height="8.51" transform="translate(-44.67 94.33) rotate(-22.78)" fill="#4b0062"/><rect x="118.56" y="148.83" width="1" height="22.68" transform="translate(-44.23 45.43) rotate(-18.28)" fill="#4b0062"/><rect x="125.04" y="175.93" width="1" height="7.62" transform="translate(-50.06 48.48) rotate(-18.29)" fill="#4b0062"/><rect x="224.19" y="167.86" width="1" height="41.62" transform="translate(-55.53 101.72) rotate(-22.78)" fill="#4b0062"/><rect x="224.5" y="228.53" width="1" height="22" transform="translate(-90.73 330.71) rotate(-62.9)" fill="#4b0062"/><rect x="206.76" y="252.18" width="34.72" height="1" transform="translate(-106.24 182.41) rotate(-36.42)" fill="#4b0062"/><rect x="209.84" y="233.47" width="1" height="27.25" transform="translate(-110.62 294.87) rotate(-58.06)" fill="#4b0062"/><rect x="209.51" y="259.85" width="36.53" height="1" transform="translate(-118.13 256.92) rotate(-48.25)" fill="#4b0062"/><rect x="217.17" y="276.14" width="36.05" height="1" transform="translate(-127.86 282.92) rotate(-50.62)" fill="#4b0062"/><rect x="228.36" y="296.19" width="31.37" height="1" transform="translate(-73.12 79.92) rotate(-16.21)" fill="#4b0062"/><rect x="228.18" y="280.87" width="25.39" height="1" transform="translate(-63.59 70.44) rotate(-14.72)" fill="#4b0062"/><rect x="245.92" y="293.86" width="1" height="21.39" transform="translate(-143.83 338.88) rotate(-56.05)" fill="#4b0062"/><rect x="245.57" y="300.84" width="16.58" height="1" transform="translate(-93.75 115.82) rotate(-21.8)" fill="#4b0062"/><rect x="231.53" y="301.93" width="1" height="17.69" transform="translate(-153.04 357.07) rotate(-60.11)" fill="#4b0062"/><rect x="137.89" y="225.84" width="17.06" height="1" transform="translate(-111.49 304.74) rotate(-74.01)" fill="#4b0062"/><rect x="133.53" y="198.88" width="1" height="35.68" transform="translate(-5.44 3.46) rotate(-1.45)" fill="#4b0062"/><rect x="106.56" y="216.23" width="36.82" height="1" transform="translate(-116.51 282.1) rotate(-75.18)" fill="#4b0062"/><rect x="91.1" y="216.43" width="37.22" height="1" transform="translate(-130.87 251.81) rotate(-71.42)" fill="#4b0062"/><rect x="93.26" y="198.14" width="1" height="38.12" transform="translate(-81.96 58.81) rotate(-24.62)" fill="#4b0062"/><rect x="81.03" y="199.72" width="1" height="35.2" transform="translate(-41.83 20.7) rotate(-11.54)" fill="#4b0062"/><rect x="73.19" y="200.03" width="1" height="34.67" transform="translate(-29.25 12.23) rotate(-7.92)" fill="#4b0062"/><rect x="55.74" y="217.97" width="23.41" height="1" transform="translate(-159.16 188.02) rotate(-65.19)" fill="#4b0062"/><rect x="50.67" y="206.41" width="24.75" height="1" transform="translate(-152.76 192.22) rotate(-69.16)" fill="#4b0062"/><rect x="50.28" y="196.91" width="13.63" height="1" transform="translate(-133.39 120.3) rotate(-51.83)" fill="#4b0062"/><rect x="90.58" y="207.37" width="23.95" height="1" transform="translate(-58.43 41.1) rotate(-17.73)" fill="#4b0062"/><rect x="96.24" y="220.65" width="13.48" height="1" transform="translate(-78.96 58.64) rotate(-23.26)" fill="#4b0062"/><rect x="160.47" y="236.5" width="10.66" height="1" transform="translate(-83.43 383.78) rotate(-85.52)" fill="#4b0062"/><rect x="170.08" y="236.49" width="10.66" height="1" transform="translate(-74.56 393.35) rotate(-85.52)" fill="#4b0062"/><rect x="158.38" y="206.44" width="28.32" height="1" fill="#4b0062"/><path d="m186.67,201.71c-26.49-31.91-26.48-32-26.47-32.24l1,.06h-.5l.42-.27c.47.67,17.42,21.12,26.32,31.84l-.77.61Z" fill="#4b0062"/><rect x="174.68" y="144.37" width="1" height="39.89" transform="translate(-64.91 157.71) rotate(-41.59)" fill="#4b0062"/><rect x="175.63" y="133.19" width="1" height="31.51" transform="translate(-40.56 227.99) rotate(-60.26)" fill="#4b0062"/><rect x="169.18" y="143.84" width="21.45" height="1" transform="translate(-8.41 11.15) rotate(-3.47)" fill="#4b0062"/><rect x="162.48" y="134.67" width="28.98" height="1" transform="translate(-19.37 30.1) rotate(-9.22)" fill="#4b0062"/><rect x="159.61" y="183.94" width="12.58" height="1" transform="translate(-28 29.71) rotate(-9.44)" fill="#4b0062"/><rect x="158.39" y="196.11" width="22.52" height="1" transform="translate(-47.32 53.92) rotate(-15.88)" fill="#4b0062"/><rect x="55.75" y="103.45" width="1" height="41.85" transform="translate(-73.16 80.94) rotate(-47.11)" fill="#4b0062"/><rect x="83.45" y="101.19" width="1" height="46.7" transform="translate(-65.93 114.93) rotate(-52.35)" fill="#4b0062"/><rect x="96.78" y="128.33" width="20.07" height="1" transform="translate(-33.28 220.38) rotate(-83.5)" fill="#4b0062"/><rect x="82.58" y="119.76" width="19.78" height="1" transform="translate(-39.59 194.91) rotate(-81.92)" fill="#4b0062"/><rect x="75.35" y="114.43" width="12.13" height="1" transform="translate(-58.54 99.14) rotate(-48.25)" fill="#4b0062"/><rect x="60.33" y="127.22" width="1" height="11.45" transform="translate(-29.01 17.61) rotate(-13.33)" fill="#4b0062"/><rect x="47.88" y="115.06" width="1" height="23.54" transform="translate(-20.23 9.7) rotate(-9.48)" fill="#4b0062"/><rect x="59.51" y="103.58" width="12.07" height="1" fill="#4b0062"/><rect x="45.04" y="103.58" width="7.75" height="1" fill="#4b0062"/><rect x="120.18" y="140.96" width="24.78" height="1" transform="translate(-51.09 203.56) rotate(-65.54)" fill="#4b0062"/><rect x="135.2" y="139.75" width="24.45" height="1" transform="translate(-41.09 216.87) rotate(-65.69)" fill="#4b0062"/><rect x="126.71" y="148.95" width="38.32" height="1" transform="translate(-54.8 91.62) rotate(-29.62)" fill="#4b0062"/><rect x="145.92" y="164.96" width="1" height="32" transform="translate(-85.96 194.51) rotate(-54.36)" fill="#4b0062"/><rect x="134.85" y="166.08" width="28.71" height="1" transform="translate(-65.85 105.24) rotate(-32.23)" fill="#4b0062"/><rect x="144.81" y="177.27" width="15.84" height="1" transform="translate(-44.33 50.91) rotate(-16.56)" fill="#4b0062"/><rect x="148.72" y="185.88" width="1" height="22.39" transform="translate(-97.29 215.45) rotate(-57.13)" fill="#4b0062"/><rect x="147.45" y="213.62" width="10.49" height="1" fill="#4b0062"/><rect x="172.4" y="208.43" width="56.91" height="1" transform="translate(-74.92 298.06) rotate(-64.04)" fill="#4b0062"/><rect x="201.97" y="207.92" width="25.24" height="1" transform="translate(-54.06 340) rotate(-70.26)" fill="#4b0062"/><rect x="212.08" y="203.67" width="1" height="33.62" transform="translate(-20.85 418.76) rotate(-86.39)" fill="#4b0062"/><rect x="179.38" y="179.22" width="34.39" height="1" transform="translate(-59.91 251.55) rotate(-58.08)" fill="#4b0062"/><rect x="189.53" y="145.58" width="7.93" height="1" transform="translate(-48.95 145.78) rotate(-36.98)" fill="#4b0062"/><rect x="189.95" y="153.43" width="10.91" height="1" transform="translate(-5.28 6.95) rotate(-2.01)" fill="#4b0062"/><rect x="188.25" y="163.91" width="16.41" height="1" transform="translate(-52.52 104.11) rotate(-26.31)" fill="#4b0062"/><path d="m44.2,125.1h0l-10.87-29.84L.71,107.1l10.81,29.67h0l.06.17h0c1.21,2.34,9.09,1.69,17.91-1.52,8.82-3.21,15.29-7.76,14.71-10.32Z" fill="#fff0dc"/><path d="m15.88,138.86c-2.12,0-3.75-.39-4.51-1.29h-.11l-.26-.62L0,106.81l33.59-12.24,11.29,30.81h-.14c0,3.26-7.58,7.76-15.05,10.48-4.81,1.79-10.03,3-13.81,3Zm-3.94-2.24l.07.12c1,1.84,8.13,1.57,17.29-1.76s14.83-7.75,14.37-9.78v-.21l-10.61-29.11L1.35,107.44l10.59,29.18Z" fill="#4b0062"/><ellipse cx="17.02" cy="101.21" rx="17.49" ry="4.88" transform="translate(-33.62 11.94) rotate(-20.02)" fill="#fff0dc"/><path d="m4.98,109.23c-2.73,0-4.4-.64-4.85-1.88-.54-1.47.78-3.4,3.81-5.57,3.49-2.37,7.27-4.28,11.25-5.68,8.2-3,17.55-4.39,18.75-1.11h0c1.2,3.28-6.87,8.23-15.06,11.21-3.94,1.5-8.05,2.48-12.24,2.92-.59.07-1.15.11-1.66.11Zm24.13-15.13c-4.66.25-9.25,1.27-13.58,3-3.89,1.35-7.59,3.21-11,5.51-2.51,1.8-3.8,3.45-3.45,4.42s2.4,1.4,5.49,1.16c4.11-.43,8.14-1.39,12-2.86,9.41-3.43,15.17-8,14.47-9.93-.33-.82-1.73-1.3-3.93-1.3Z" fill="#4b0062"/><ellipse cx="17.02" cy="101.21" rx="7.14" ry="2" transform="translate(-33.62 11.94) rotate(-20.02)" fill="#4b0062"/><path d="m23.42,163.84l.53-7.36-6.54,1.22.61-8.4-6.54,1.23.6-8.41-4.47,1.43c4-6.35,19.61-29.58,26.08-47.43l10.49,28.79s1.26,5.25-20.76,38.93Z" fill="#fff0dc"/><path d="m22.78,165.73l.62-8.64-6.52,1.22.61-8.4-6.56,1.19.59-8.32-5.06,1.62.72-1.15c.53-.85,1.27-2,2.18-3.42,5.93-9.25,18.27-28.51,23.85-43.91l.47-1.29,11,30.08c.07.28,1.08,5.9-20.81,39.38l-1.09,1.64Zm1.71-9.86l-.44,6.08c20.23-31.17,19.65-36.87,19.64-36.92l-10-27.46c-5.82,15.27-17.69,33.8-23.48,42.83l-1.44,2.25,3.87-1.24-.61,8.5,6.54-1.23-.61,8.4,6.53-1.21Z" fill="#4b0062"/></svg>