<?xml version="1.0" encoding="UTF-8"?>
<svg xmlns="http://www.w3.org/2000/svg" viewBox="0 0 195.49 300.41" >
  <g id="body">
    <rect x="92.91" width="1.87" height="217.72" fill="#4b0062"/>
    <path d="m122.09,164.45c-4.69,0-9.36.53-13.93,1.56-9.16-3.83-19.48-3.83-28.64,0-4.57-1.03-9.24-1.55-13.93-1.56C29.39,164.45,0,194.89,0,232.43s29.35,67.98,65.6,67.98c9.81.01,19.49-2.25,28.28-6.62,8.78,4.36,18.45,6.62,28.25,6.62,36.21,0,65.6-30.44,65.6-67.98s-29.43-67.98-65.64-67.98Z" fill="#f48001"/>
    <path d="m17.66,172.45l-1.56-1.05c.72-1.08,1.5-2.11,2.32-3.11,5.95-7.29,14.51-11.96,23.86-13.01l.19,1.87c-8.86,1-16.97,5.43-22.6,12.33-.79.95-1.52,1.94-2.21,2.96Z" fill="#4b0062"/>
    <path d="m181.98,279.14l-1.16-1.46c5.36-4.37,9.28-10.24,11.25-16.87.87-2.82,1.4-5.73,1.56-8.68l1.87.09c-.16,3.1-.71,6.18-1.63,9.15-2.09,6.98-6.23,13.17-11.88,17.77Z" fill="#4b0062"/>
  </g>
  <g id="face">
    <polygon points="33.19 221.6 44.89 259.53 57.71 255.45 69.03 271.79 85.71 261.65 101.42 273.72 119.43 258.95 131.5 266.06 140.89 249 149.91 253.59 154.5 214.7 143.97 234.81 136.3 232.43 125.37 248.23 110.62 243.25 99.32 253.99 83.59 242.48 68.07 252.06 58.12 236.35 49.88 239.8 33.19 221.6" fill="#4b0062"/>
    <polygon points="93.85 192.32 82.11 233.61 105.58 233.61 93.85 192.32" fill="#4b0062"/>
    <polygon points="119.45 198.58 113.34 218.67 133.38 214.33 119.45 198.58" fill="#4b0062"/>
    <polygon points="68.24 198.58 74.37 218.67 54.34 214.33 68.24 198.58" fill="#4b0062"/>
  </g>
</svg>