<?xml version="1.0" encoding="UTF-8"?><svg id="vampire" xmlns="http://www.w3.org/2000/svg" viewBox="0 0 230.84 305.74"><polygon points="194.92 .48 178.77 40.46 161.36 83.55 160.19 86.44 146.09 96.75 84.72 96.75 70.62 86.44 69.45 83.55 52.04 40.46 35.89 .48 194.92 .48" fill="#f44b1b"/><path d="m146.25,97.25h-61.73l-14.35-10.49-1.22-3L35.11,0h160.55l-35.06,86.78-14.35,10.47Zm-61.37-1h61l13.85-10.13L194.13.98H36.63l34.4,85.14,13.85,10.13Z" fill="#4b0062"/><polygon points="230.66 265.91 .15 265.91 70.23 84.34 160.59 84.34 230.66 265.91" fill="#4b0062"/><path d="m31.08,55.12H5.52c-7.37,10.74-7.37,24.91,0,35.65h86.43v-35.65H31.08Z" fill="#4b0062"/><path d="m225.32,55.12h-86.44v35.65h86.43c7.37-10.74,7.37-24.91,0-35.65h.01Z" fill="#4b0062"/><polygon points="86.64 64.75 69.45 83.55 52.04 40.46 86.64 64.75" fill="#fff0dc"/><path d="m69.29,84.48l-18.34-45.39,36.45,25.59-18.11,19.8Zm-16.15-42.63l16.48,40.77,16.27-17.79-32.75-22.98Z" fill="#4b0062"/><polygon points="178.77 40.46 161.36 83.55 144.17 64.75 178.77 40.46" fill="#fff0dc"/><path d="m161.52,84.48l-18.11-19.8,36.45-25.59-18.34,45.39Zm-16.6-19.64l16.27,17.78,16.48-40.79-32.75,23.01Z" fill="#4b0062"/><rect x="78.79" y="96.75" width="36.62" height="187.77" fill="#f44b1b"/><path d="m115.91,285.02h-37.62V96.25h37.62v188.77Zm-36.62-1h35.62V97.25h-35.62v186.77Z" fill="#4b0062"/><rect x="115.41" y="96.75" width="36.61" height="187.77" fill="#f44b1b"/><path d="m152.52,285.02h-37.61V96.25h37.61v188.77Zm-36.61-1h35.61V97.25h-35.61v186.77Z" fill="#4b0062"/><polygon points="78.79 284.53 78.79 292.26 55.34 305.2 99.08 305.2 106.62 297.34 106.62 305.2 115.41 305.2 115.41 284.53 78.79 284.53" fill="#4b0062"/><path d="m115.91,305.7h-9.79v-7.08l-6.82,7.12h-45.9l24.89-13.74v-7.94h37.61v21.64Zm-8.78-1h7.79v-19.67h-35.62v7.53l-22,12.15h41.58l8.25-8.61v8.6Z" fill="#4b0062"/><polygon points="115.41 96.75 115.41 193.83 97.1 207.55 78.79 187.02 78.79 96.75 115.41 96.75" fill="#a26bb4"/><path d="m97.03,208.23l-18.74-21v-91h37.62v97.83l-18.88,14.17Zm-17.74-21.4l17.88,20,17.74-13.21v-96.37h-35.62v89.58Z" fill="#4b0062"/><polygon points="152.02 284.53 152.02 292.26 175.47 305.2 131.73 305.2 124.2 297.34 124.2 305.2 115.41 305.2 115.41 284.53 152.02 284.53" fill="#4b0062"/><path d="m177.41,305.7h-45.89l-6.83-7.08v7.12h-9.79v-21.71h37.62v7.94l24.89,13.73Zm-45.47-1h41.58l-22-12.15v-7.53h-35.61v19.67h7.79v-8.61l8.24,8.62Z" fill="#4b0062"/><polygon points="152.02 96.75 152.02 187.02 133.71 207.55 115.41 193.83 115.41 96.75 152.02 96.75" fill="#a26bb4"/><path d="m133.78,208.23l-18.87-14.15v-97.83h37.61v91l-18.74,20.98Zm-17.87-14.61l17.73,13.29,17.88-20v-89.66h-35.61v96.37Z" fill="#4b0062"/><circle cx="121.94" cy="146.51" r="3.49" fill="#4b0062"/><circle cx="121.94" cy="162.34" r="3.49" fill="#4b0062"/><rect x="114.91" y="284.53" width="1" height="20.67" fill="#a26bb4"/><polygon points="115.45 93.48 115.36 93.48 74.1 93.48 104.87 125.55 110.49 131.41 115.36 136.48 115.36 136.57 115.41 136.53 115.45 136.57 115.45 136.48 120.32 131.41 125.94 125.55 156.71 93.48 115.45 93.48" fill="#f44b1b"/><path d="m115.95,137.69l-.56-.5-.48.38v-.87l-41.94-43.71h85l-41.93,43.7-.09,1Zm-40.68-43.71l40.13,41.83,40.12-41.83h-80.25Z" fill="#4b0062"/><polygon points="123.86 119.24 115.45 108.41 115.41 108.36 115.36 108.42 106.95 119.24 112.8 126.63 110.49 131.41 115.36 136.48 115.36 136.57 115.41 136.53 115.45 136.57 115.45 136.48 120.32 131.41 118.01 126.63 123.86 119.24" fill="#4b0062"/><polygon points="156.71 93.48 125.94 125.55 115.45 116.21 115.41 116.17 115.36 116.21 104.87 125.55 74.1 93.48 156.71 93.48" fill="#fff0dc"/><path d="m125.97,126.25l-10.56-9.4-10.56,9.4-31.92-33.26h85l-31.96,33.26Zm-50.69-32.26l29.63,30.88,10.48-9.33.38.29,10.15,9,29.6-30.85h-80.24Z" fill="#4b0062"/><ellipse cx="115.41" cy="61.1" rx="50.36" ry="55.35" fill="#fff0dc"/><path d="m115.41,116.95c-28,0-50.86-25.05-50.86-55.85S87.36,5.25,115.41,5.25s50.85,25.05,50.85,55.85-22.81,55.85-50.85,55.85Zm0-110.7c-27.49,0-49.86,24.61-49.86,54.85s22.37,54.85,49.86,54.85,49.85-24.61,49.85-54.85S142.9,6.25,115.41,6.25h0Z" fill="#4b0062"/><path d="m165.76,61.1c-.01,3.6-.35,7.18-1,10.72-2.41-23-15.21-40.51-30.65-40.51-7,0-13.55,3.66-18.75,9.81-5.21-6.15-11.71-9.81-18.76-9.81-15.44,0-28.24,17.53-30.65,40.51-.65-3.54-.99-7.12-1-10.72,0-30.57,22.54-55.35,50.36-55.35s50.45,24.78,50.45,55.35Z" fill="#4b0062"/><rect x="152.23" y="38.21" width="8.95" height="1" transform="translate(7.02 99.14) rotate(-35.86)" fill="#a26bb4"/><polygon points="156.75 46.79 156.63 46.79 156.63 46.28 156.41 45.84 162.82 42.69 163.26 43.59 156.75 46.79" fill="#a26bb4"/><polygon points="77.45 41.72 70.2 36.47 70.49 36.07 70.48 35.56 70.64 35.56 70.78 35.66 78.03 40.91 77.45 41.72" fill="#a26bb4"/><polygon points="74.19 46.79 74.07 46.79 67.54 43.58 67.98 42.69 74.4 45.85 74.19 46.28 74.19 46.79" fill="#a26bb4"/><polygon points="21.88 50.66 22.52 98.57 27.26 101.13 32.77 83.2 32.77 101.13 40.07 101.13 40.07 84.48 45.95 100.62 53.13 100.62 48.9 84.99 58.25 96.01 62.74 92.55 38.78 47.21 21.88 50.66" fill="#fff0dc"/><path d="m27.52,101.86l-5.53-3-.65-48.61,17.71-3.63,24.32,46-5.19,4-8.21-9.67,3.81,14.1h-8.18l-5-13.81v14.38h-8.3v-15.1l-4.78,15.34Zm5.71-1.23h6.29v-19.01l6.73,18.47h6.27l-4.64-17.16,10.49,12.36,3.77-2.91-23.62-44.61-16.13,3.3.63,47.2,3.94,2.13,6.31-20.53-.04,20.76Z" fill="#4b0062"/><polygon points="208.94 50.66 208.29 98.57 203.56 101.13 198.05 83.2 198.05 101.13 190.75 101.13 190.75 84.48 184.86 100.62 177.68 100.62 181.91 84.99 172.56 96.01 168.08 92.55 192.03 47.21 208.94 50.66" fill="#fff0dc"/><path d="m203.26,101.86l-4.74-15.33v15.09h-8.3v-14.31l-5,13.81h-8.18l3.81-14.1-8.21,9.67-5.19-4,24.32-46,17.68,3.62-.65,48.61-5.54,2.94Zm-12-1.23h6.26v-20.76l6.31,20.53,3.94-2.13.63-47.2-16.13-3.3-23.58,44.64,3.83,2.91,10.49-12.36-4.64,17.16h6.15l6.73-18.5v19.01Z" fill="#4b0062"/><path d="m92.63,71.82c-5.28-.16-9.64-4.19-10.19-9.45l-.07-.56h20.52l-.07.56c-.55,5.26-4.91,9.29-10.19,9.45Zm-9.11-9c.65,5.03,5.25,8.58,10.28,7.93,4.14-.53,7.4-3.79,7.93-7.93h-18.21Z" fill="#4b0062"/><path d="m98.03,62.62c0,2.98-2.41,5.4-5.39,5.41-2.98,0-5.4-2.41-5.41-5.39v-.02c0-.11,0-.22,0-.33h10.76c.02.11.04.22.04.33Z" fill="#f44b1b"/><path d="m92.63,68.54c-3.26,0-5.89-2.64-5.9-5.9-.01-.14-.01-.28,0-.42l.08-.41h11.59l.07.41c.01.14.01.28,0,.42,0,3.23-2.61,5.86-5.84,5.9Zm-4.9-5.73c.12,2.7,2.41,4.8,5.12,4.67,2.53-.11,4.56-2.14,4.67-4.67h-9.79Z" fill="#4b0062"/><path d="m138.18,71.82c-5.28-.16-9.64-4.19-10.19-9.45l-.07-.56h20.52l-.07.56c-.55,5.26-4.91,9.29-10.19,9.45Zm-9.11-9c.65,5.03,5.25,8.58,10.28,7.93,4.14-.53,7.4-3.79,7.93-7.93h-18.21Z" fill="#4b0062"/><path d="m143.58,62.62c0,2.98-2.43,5.4-5.41,5.39-2.98,0-5.39-2.42-5.39-5.39,0-.11,0-.22,0-.33h10.74c.03.11.05.22.06.33Z" fill="#f44b1b"/><path d="m138.18,68.54c-3.26,0-5.89-2.64-5.9-5.9-.01-.14-.01-.28,0-.42l.08-.41h11.59l.08.41c.01.14.01.28,0,.42,0,3.24-2.61,5.87-5.85,5.9Zm-4.9-5.73c.12,2.7,2.41,4.8,5.12,4.67,2.53-.11,4.56-2.14,4.67-4.67h-9.79Z" fill="#4b0062"/><polygon points="115.41 57.25 108.43 84.35 122.39 84.35 115.41 57.25" fill="#f48001"/><path d="m130.78,81.9c.06,5.17-1.03,10.29-3.18,15-2.81,5.86-7.23,9.64-12.19,9.64s-9.39-3.78-12.19-9.64c-2.16-4.7-3.25-9.83-3.19-15,1.33,2.99,3.29,5.65,5.74,7.81,5.44,5.03,13.84,5.03,19.28,0,2.45-2.16,4.4-4.83,5.73-7.81Z" fill="#4b0062"/><path d="m115.41,107.06c-5,0-9.63-3.62-12.64-9.92-2.2-4.78-3.31-9.98-3.25-15.24v-2.28l1,2.06c1.3,2.92,3.22,5.52,5.61,7.64,5.26,4.87,13.37,4.87,18.63,0,2.39-2.12,4.3-4.72,5.6-7.64l1-2.07v2.28c.06,5.26-1.04,10.46-3.23,15.24-3.1,6.32-7.71,9.93-12.72,9.93Zm-14.82-23c.19,4.37,1.24,8.65,3.08,12.62,2.84,5.95,7.12,9.36,11.74,9.36s8.89-3.41,11.74-9.36c1.83-3.96,2.88-8.25,3.07-12.61-1.26,2.26-2.89,4.29-4.84,6-5.63,5.19-14.3,5.19-19.93,0-1.95-1.7-3.6-3.72-4.86-5.98v-.03Z" fill="#4b0062"/><path d="m130.78,81.9c.06,5.17-1.03,10.29-3.18,15l-2.55-7.21c2.45-2.16,4.4-4.81,5.73-7.79Z" fill="#fff0dc"/><path d="m127.52,98.23l-3.07-8.67.26-.22c2.39-2.12,4.3-4.72,5.6-7.64l1-2.07v2.28c.06,5.26-1.04,10.46-3.23,15.24l-.56,1.08Zm-1.9-8.36l2,5.72c1.51-3.65,2.38-7.54,2.56-11.49-1.19,2.16-2.72,4.11-4.54,5.77h-.02Z" fill="#4b0062"/><path d="m105.77,89.71l-2.55,7.21c-2.16-4.7-3.25-9.83-3.19-15,1.33,2.98,3.29,5.64,5.74,7.79Z" fill="#fff0dc"/><path d="m103.29,98.23l-.52-1.08c-2.2-4.78-3.31-9.99-3.25-15.25v-2.28l1,2.06c1.3,2.92,3.22,5.52,5.61,7.64l.26.22-3.1,8.69Zm-2.7-14.14c.18,3.95,1.05,7.84,2.57,11.5l2-5.72c-1.83-1.66-3.37-3.62-4.57-5.78h0Z" fill="#4b0062"/><path d="m115.41,107.06c-8.76,0-15.88-11.29-15.88-25.16,0-1,0-1.95.11-3l1,.07c-.07,1-.11,2-.11,2.91,0,13.32,6.68,24.16,14.88,24.16s14.87-10.84,14.87-24.16c0-.94,0-1.9-.11-2.92l1-.07c.07,1,.11,2,.11,3,0,13.89-7.12,25.17-15.87,25.17Z" fill="#4b0062"/><rect x="79.04" y="61.81" width="25.56" height="1" fill="#4b0062"/><rect x="126.21" y="61.81" width="25.56" height="1" fill="#4b0062"/><rect x="125.48" y="52.22" width="18.76" height="1" transform="translate(-9.52 63.72) rotate(-25.71)" fill="#4b0062"/><rect x="95.46" y="43.32" width="1" height="18.76" transform="translate(6.87 116.31) rotate(-64.3)" fill="#4b0062"/></svg>