<?xml version="1.0" encoding="UTF-8"?><svg id="witch" xmlns="http://www.w3.org/2000/svg" viewBox="0 0 228.29 344.46"><path d="m134.78,170.33l-5.36,25.81H26.27v-23.12c0-1.48,1.2-2.68,2.68-2.68h105.83Z" fill="#a26bb4"/><path d="m129.88,196.64H25.77v-23.62c0-1.75,1.43-3.17,3.18-3.18h106.45l-5.52,26.8Zm-103.06-1h102.2l5.15-24.81H28.96c-1.2,0-2.17.98-2.18,2.18l.04,22.63Z" fill="#4b0062"/><path d="m45.02,170.33v25.81h-18.75v-23.12c0-1.48,1.2-2.68,2.68-2.68h16.07Z" fill="#fff0dc"/><path d="m45.52,196.64h-19.75v-23.62c0-1.75,1.43-3.17,3.18-3.18h16.57v26.8Zm-18.75-1h17.75v-24.81h-15.56c-1.2,0-2.17.98-2.18,2.18v22.63Z" fill="#4b0062"/><path d="m66.94,210.32L20.14,98.21c-2.12-5.22-8.08-7.74-13.3-5.61-5.22,2.12-7.74,8.08-5.61,13.3.16.38.33.76.54,1.12l58.35,107.19c-1.21,3.17.39,6.72,3.56,7.92s6.72-.39,7.92-3.56c1.21-3.17-.39-6.72-3.56-7.92-.35-.13-.72-.24-1.09-.3v-.03Z" fill="#4b0062"/><path d="m65.88,223c-3.66,0-6.63-2.98-6.64-6.64,0-.73.12-1.45.36-2.14L1.36,107.22c-2.88-5.17-1.02-11.69,4.15-14.57s11.69-1.02,14.57,4.15c.21.38.4.78.57,1.18l46.7,111.86c3.6.68,5.97,4.16,5.29,7.76-.61,3.22-3.47,5.51-6.75,5.4ZM10.72,92.44c-5.36,0-9.71,4.36-9.7,9.72,0,1.62.41,3.21,1.18,4.63l58.46,107.35-.08.21c-1.11,2.91.35,6.17,3.27,7.28,2.91,1.11,6.17-.35,7.28-3.27,1.11-2.91-.35-6.17-3.27-7.28-.32-.12-.64-.21-.98-.27h-.27l-.1-.25L19.68,98.41c-1.51-3.64-5.06-6.01-9-6l.04.03Z" fill="#4b0062"/><polygon points="127.41 280.13 124.69 290.29 122.5 298.45 120.51 305.87 118.32 314.03 116.33 321.45 114.14 329.61 110.46 343.34 106.26 343.34 106.26 336.17 98.46 343.34 78.92 343.34 95.12 329.61 95.12 278.89 127.41 280.13" fill="#fff0dc"/><path d="m110.88,343.84h-5.08v-6.53l-7.1,6.53h-21.1l17.06-14.46v-51l33.43,1.28-17.21,64.18Zm-4.08-1h3.32l16.69-62.23-31.15-1.2v50.43l-15.34,13h18l8.5-7.81-.02,7.81Z" fill="#4b0062"/><polygon points="157.13 121.35 157.13 183.14 93.5 183.14 93.5 143.67 73.75 143.67 80.63 131.96 97.02 104.09 97.7 102.93 97.71 102.93 120.8 110.09 157.13 121.35" fill="#fff0dc"/><path d="m157.63,183.64h-64.63v-39.43h-20.12l24.54-41.74h.44l59.77,18.53v62.64Zm-63.63-1h62.63v-60.92l-58.7-18.2-23.3,39.69h19.38v39.43Z" fill="#4b0062"/><path d="m157.13,121.35v45.92c-15-3.68-30-22.87-34.85-46-.78-3.69-1.28-7.43-1.48-11.2l36.33,11.28Z" fill="#f48001"/><path d="m157.63,167.91l-.62-.15c-15.54-3.8-30.35-23.3-35.22-46.36-.79-3.72-1.29-7.49-1.49-11.28v-.71l37.37,11.58-.04,46.92Zm-36.29-57.13c.22,3.51.7,6.99,1.43,10.43,4.73,22.4,18.9,41.36,33.86,45.44v-44.93l-35.29-10.94Z" fill="#4b0062"/><polygon points="157.13 1.84 157.13 121.35 97.71 102.93 100.79 97.68 105.81 89.14 157.13 1.84" fill="#4b0062"/><path d="m157.63,122.03l-60.67-18.82,8.42-14.33L157.63,0v122.03Zm-59.17-19.39l58.17,18V3.64l-58.17,99Z" fill="#4b0062"/><polygon points="157.13 149.85 130.7 143.67 80.63 131.96 97.02 104.09 149.01 143.67 157.13 149.85" fill="#f44b1b"/><path d="m159.3,150.87l-79.42-18.57,17-28.94,62.42,47.51Zm-77.89-19.24l73.56,17.2-57.8-44-15.76,26.8Z" fill="#4b0062"/><polygon points="157.13 105.03 157.13 115.12 100.79 97.68 105.81 89.14 157.13 105.03" fill="#a26bb4"/><path d="m157.63,115.8l-57.59-17.83,5.54-9.43,52.05,16.12v11.14Zm-56.09-18.41l55.09,17.05v-9l-50.59-15.66-4.5,7.61Z" fill="#4b0062"/><rect x="127.6" y="43.98" width="1" height="136.73" transform="translate(-17.15 201.42) rotate(-72.77)" fill="#4b0062"/><path d="m168.49,140.91c.2,2.33-1.14,5.07-3.66,7s-5.52,2.43-7.7,1.6l11.36-8.6Z" fill="#f44b1b"/><path d="m159.31,150.35c-.8,0-1.6-.13-2.35-.41l-.84-.32,12.8-9.65.08.9c.22,2.57-1.29,5.47-3.85,7.41-1.68,1.3-3.72,2.02-5.84,2.07Zm-1.06-1.14c4.65.43,8.87-2.75,9.74-7.34l-9.74,7.34Z" fill="#4b0062"/><path d="m157.14,150.13c2.22-.72,5.19,0,7.6,2s3.61,4.83,3.28,7.15l-10.88-9.15Z" fill="#f44b1b"/><path d="m168.39,160.21l-12.27-10.31.86-.28c2.45-.79,5.62,0,8.08,2.1s3.81,5,3.45,7.6l-.12.89Zm-10.16-9.85l9.33,7.85c-.62-4.63-4.66-8.03-9.33-7.85Z" fill="#4b0062"/><ellipse cx="163.6" cy="164.04" rx="6.46" ry="6.02" fill="#f48001"/><path d="m163.6,170.56c-3.6-.25-6.32-3.38-6.06-6.98.25-3.6,3.38-6.32,6.98-6.06,3.43.24,6.08,3.09,6.08,6.53-.13,3.73-3.26,6.65-6.99,6.52,0,0,0,0,0,0Zm0-12c-3.05.25-5.31,2.93-5.06,5.98.25,3.05,2.93,5.31,5.98,5.06,2.87-.24,5.08-2.64,5.08-5.52-.11-3.18-2.77-5.67-5.95-5.56-.02,0-.03,0-.05,0v.04Z" fill="#4b0062"/><ellipse cx="176.52" cy="164.04" rx="6.46" ry="6.02" fill="#f48001"/><path d="m176.52,170.56c-3.6-.25-6.32-3.38-6.06-6.98.25-3.6,3.38-6.32,6.98-6.06,3.43.24,6.08,3.09,6.08,6.53-.13,3.73-3.26,6.65-6.99,6.52,0,0,0,0,0,0Zm0-12c-3.05.25-5.31,2.93-5.06,5.98.25,3.05,2.93,5.31,5.98,5.06,2.87-.24,5.08-2.64,5.08-5.52-.11-3.18-2.77-5.67-5.95-5.56-.02,0-.03,0-.05,0v.04Z" fill="#4b0062"/><ellipse cx="189.44" cy="164.04" rx="6.46" ry="6.02" fill="#f48001"/><path d="m189.44,170.56c-3.6-.25-6.32-3.38-6.06-6.98.25-3.6,3.38-6.32,6.98-6.06,3.43.24,6.08,3.09,6.08,6.53-.13,3.73-3.26,6.65-6.99,6.52,0,0,0,0,0,0Zm0-12c-3.05.25-5.31,2.93-5.06,5.98.25,3.05,2.93,5.31,5.98,5.06,2.87-.24,5.08-2.64,5.08-5.52-.11-3.18-2.77-5.67-5.95-5.56-.02,0-.03,0-.05,0v.04Z" fill="#4b0062"/><ellipse cx="202.36" cy="164.04" rx="6.46" ry="6.02" fill="#f48001"/><path d="m202.36,170.56c-3.6-.25-6.32-3.38-6.06-6.98.25-3.6,3.38-6.32,6.98-6.06,3.43.24,6.08,3.09,6.08,6.53-.13,3.73-3.26,6.65-6.99,6.52,0,0,0,0,0,0Zm0-12c-3.05.25-5.31,2.93-5.06,5.98.25,3.05,2.93,5.31,5.98,5.06,2.87-.24,5.08-2.64,5.08-5.52-.11-3.18-2.77-5.67-5.95-5.56-.02,0-.03,0-.05,0v.04Z" fill="#4b0062"/><polygon points="208.82 164.04 221.46 177 220.96 169.25 226.93 167.92 220.89 163.28 226.93 158.45 220.18 158.02 222.17 151.49 208.82 164.04" fill="#f48001"/><path d="m222.04,178.31l-13.94-14.29,15.09-14.19-2.31,7.73,7.41.48-6.55,5.24,6.38,4.9-6.59,1.47.51,8.66Zm-12.51-14.26l11.35,11.63-.44-6.82,5.34-1.19-5.7-4.38,5.53-4.42-6.09-.39,1.63-5.34-11.62,10.91Z" fill="#4b0062"/><path d="m93.52,160.39v-1l4.36-.18c4.82-.2,8.69-4.04,8.94-8.85l.13-2.38,1,.06-.13,2.38c-.29,5.34-4.59,9.59-9.94,9.79l-4.36.18Z" fill="#4b0062"/><polygon points="207.1 290.29 74.81 290.29 98.21 176.99 176.52 176.99 159.26 196.49 207.1 290.29" fill="#a26bb4"/><path d="m207.88,290.79H74.2l.13-.6,23.48-113.7h79.83l-17.76,20.08,48,94.22Zm-132.49-1h130.9l-47.62-93.38.21-.2,16.52-18.67h-76.78l-23.23,112.25Z" fill="#4b0062"/><path d="m146.08,176.99l-5.36,25.81H37.57v-23.12c0-1.48,1.2-2.68,2.68-2.68h105.83Z" fill="#a26bb4"/><path d="m141.13,203.3H37.07v-23.62c0-1.75,1.43-3.17,3.18-3.18h106.45l-5.57,26.8Zm-103.06-1h102.25l5.15-24.81H40.26c-1.2,0-2.17.98-2.18,2.18v22.63Z" fill="#4b0062"/><polygon points="114.14 329.61 110.46 343.34 106.26 343.34 106.26 336.17 98.46 343.34 78.92 343.34 95.12 329.61 114.14 329.61" fill="#4b0062"/><path d="m110.88,343.84h-5.08v-6.53l-7.1,6.53h-21.1l17.38-14.73h19.85l-3.95,14.73Zm-4.08-1h3.32l3.41-12.73h-18.22l-15,12.73h18l8.5-7.81v7.81Z" fill="#4b0062"/><polygon points="116.33 321.45 114.14 329.61 95.12 329.61 95.12 321.45 116.33 321.45" fill="#f44b1b"/><path d="m114.53,330.11h-19.9v-9.16h22.36l-2.46,9.16Zm-18.9-1h18.14l1.92-7.16h-20.07v7.16Z" fill="#4b0062"/><polygon points="120.51 305.87 118.32 314.03 95.12 314.03 95.12 305.87 120.51 305.87" fill="#f44b1b"/><path d="m118.71,314.53h-24.09v-9.16h26.54l-2.45,9.16Zm-23.08-1h22.32l1.92-7.16h-24.25v7.16Z" fill="#4b0062"/><polygon points="124.69 290.29 122.5 298.45 95.12 298.45 95.12 290.29 124.69 290.29" fill="#f44b1b"/><path d="m122.88,298.95h-28.26v-9.16h30.72l-2.46,9.16Zm-27.26-1h26.5l1.92-7.16h-28.42v7.16Z" fill="#4b0062"/><polygon points="193.58 263.78 198.38 273.13 202.24 280.65 205.75 287.48 209.6 295 213.11 301.84 216.96 309.36 223.45 322 220.34 324.82 215.53 319.51 214.56 330.06 200.08 343.18 202.87 322.13 168.81 284.53 193.58 263.78" fill="#fff0dc"/><path d="m199.4,344.46l2.94-22.17-34.25-37.8,25.64-21.49,30.33,59.12-3.77,3.41-4.41-4.84-.88,9.61-15.6,14.16Zm-29.87-59.88l33.86,37.38-2.64,19.93,13.33-12.07,1.05-11.49,5.24,5.79,2.46-2.23-29.41-57.33-23.89,20.02Z" fill="#4b0062"/><polygon points="216.96 309.36 223.45 322 220.34 324.82 215.53 319.51 214.56 330.06 200.08 343.18 202.87 322.13 216.96 309.36" fill="#4b0062"/><path d="m199.4,344.46l3-22.58,14.71-13.33,7,13.57-3.77,3.41-4.46-4.84-.88,9.61-15.6,14.16Zm3.94-22.09l-2.59,19.52,13.33-12.07,1.05-11.49,5.24,5.79,2.46-2.23-6-11.73-13.49,12.21Z" fill="#4b0062"/><polygon points="213.11 301.84 216.96 309.36 202.87 322.13 197.39 316.08 213.11 301.84" fill="#f44b1b"/><path d="m202.88,322.83l-6.15-6.79,16.57-15,4.33,8.44-14.75,13.35Zm-4.74-6.72l4.81,5.31,13.39-12.21-3.38-6.6-14.82,13.5Z" fill="#4b0062"/><polygon points="205.75 287.48 209.6 295 192.41 310.58 186.93 304.53 205.75 287.48" fill="#f44b1b"/><path d="m192.37,311.28l-6.15-6.79,19.66-17.81,4.33,8.44-17.84,16.16Zm-4.74-6.72l4.81,5.31,16.54-15-3.38-6.6-17.97,16.29Z" fill="#4b0062"/><polygon points="198.38 273.13 202.24 280.65 181.95 299.03 176.47 292.98 198.38 273.13" fill="#f44b1b"/><path d="m181.88,299.74l-6.15-6.79,22.77-20.63,4.33,8.44-20.95,18.98Zm-4.74-6.72l4.81,5.31,19.64-17.79-3.38-6.6-21.07,19.08Z" fill="#4b0062"/><polygon points="207.1 290.29 168.07 290.29 128.49 176.99 176.52 176.99 159.26 196.49 207.1 290.29" fill="#4b0062"/><path d="m207.88,290.79h-40.2l-.12-.33-39.81-114h49.84l-17.71,20.11,48,94.22Zm-39.49-1h37.86l-47.62-93.38.25-.2,16.52-18.67h-46.2l39.19,112.25Z" fill="#4b0062"/><circle cx="109.01" cy="210.22" r="4.44" fill="#4b0062"/><circle cx="109.01" cy="224.34" r="4.44" fill="#4b0062"/><path d="m56.32,176.99v25.81h-18.75v-23.12c0-1.48,1.2-2.68,2.68-2.68h16.07Z" fill="#fff0dc"/><path d="m56.82,203.3h-19.75v-23.62c0-1.75,1.43-3.17,3.18-3.18h16.57v26.8Zm-18.75-1h17.75v-24.81h-15.56c-1.2,0-2.17.98-2.18,2.18v22.63Z" fill="#4b0062"/><rect x="37.57" y="185.1" width="11.88" height="1" fill="#4b0062"/><rect x="37.57" y="193.7" width="11.88" height="1" fill="#4b0062"/><rect x="26.27" y="178.44" width="11.88" height="1" fill="#4b0062"/><rect x="26.27" y="187.04" width="11.88" height="1" fill="#4b0062"/></svg>