<?xml version="1.0" encoding="UTF-8"?><svg id="witch" xmlns="http://www.w3.org/2000/svg" viewBox="-10 0 256.24 345.31"><path d="m195.95,34.44l-.81,2.58-1.89,6-3.69,11.81-12.4,39.64h-22.77l14.43-46.13,5.82-18.62c1.1-3.49,4.81-5.43,8.31-4.35l9.9,3.1c2.5.78,3.89,3.44,3.11,5.94,0,.01,0,.02-.01.03Z" fill="#4b0062"/><path d="m177.52,95.01h-23.81l20.45-65.4c1.18-3.76,5.18-5.85,8.94-4.68l9.9,3.1c2.76.87,4.29,3.8,3.43,6.56l-18.91,60.42Zm-22.46-1h21.72l18.69-59.7c.7-2.23-.54-4.6-2.77-5.3l-9.9-3.1c-3.22-1-6.65.78-7.68,4l-20.06,64.1Z" fill="#4b0062"/><polygon points="86.57 337.81 100.45 344.84 53.87 344.84 58.6 327.9 64.67 316.19 55.13 315.54 53.39 306.86 61.2 303.32 63.52 295.92 74.43 261.1 101.32 273.03 87.85 304.03 86.14 307.95 86.57 337.81" fill="#4b0062"/><path d="m102.54,345.31h-49.33l4.95-17.67,5.72-11-9.16-.62-1.89-9.44,8-3.61,13.27-42.56,27.86,12.36-15.33,35.28.42,29.45,15.49,7.81Zm-48-1h43.83l-12.27-6.19v-.3l-.43-30,1.75-4,13.24-30.51-25.92-11.5-13.13,41.9-7.65,3.47,1.59,7.92,9.92.68-6.37,12.3-4.56,16.23Z" fill="#4b0062"/><path d="m101.32,273.03l-13.47,31c-7.15,2.28-13.82,4.28-13.82,4.28l-10.51-12.44,10.91-34.82,26.89,11.98Z" fill="#f44b1b"/><path d="m73.86,308.93l-10.9-12.9,11.14-35.62,27.86,12.36-13.76,31.66-.22.07c-7.15,2.27-13.82,4.33-13.82,4.33l-.3.1Zm-9.76-13.13l10.12,12c1.39-.43,7.13-2.21,13.28-4.16l13.16-30.33-25.92-11.5-10.64,33.99Z" fill="#4b0062"/><polygon points="60.79 337.81 74.67 344.84 38.89 344.84 32.82 327.9 38.89 316.19 29.35 315.54 27.61 306.86 35.42 303.32 39.04 291.77 48.65 261.1 75.54 273.03 62.64 302.7 60.36 307.95 60.79 337.81" fill="#4b0062"/><path d="m76.76,345.31h-38.22l-6.26-17.48.1-.19,5.72-11-9.16-.62-1.89-9.44,8-3.61,13.33-42.54,27.86,12.36-15.33,35.28.42,29.45,15.43,7.79Zm-37.52-1h33.33l-12.28-6.22v-.3l-.43-30,15-34.56-25.92-11.5-13.13,41.9-7.65,3.47,1.59,7.92,9.92.68-6.32,12.19,5.89,16.42Z" fill="#4b0062"/><path d="m75.54,273.03l-12.9,29.67c-7.76,1.92-15.29,3.73-15.29,3.73l-8.31-14.66,9.61-30.67,26.89,11.93Z" fill="#f44b1b"/><path d="m47.1,307l-8.6-15.18.06-.21,9.78-31.21,27.86,12.36-13.2,30.35-.24.06c-7.76,1.92-15.29,3.73-15.29,3.73l-.37.1Zm-7.52-15.29l8,14.14c1.58-.38,8-1.93,14.68-3.58l12.6-29-25.92-11.5-9.36,29.94Z" fill="#4b0062"/><polygon points="109.39 90.28 108.45 93.46 104.87 105.64 102.09 115.07 89.06 159.36 66.64 177.06 58.3 191.55 50.69 187.3 49.75 178.64 42.14 174.39 41.2 165.72 33.59 161.48 32.65 152.81 25.04 148.56 24.1 139.89 16.49 135.63 32.52 126.13 93.01 90.28 109.39 90.28" fill="#a26bb4"/><path d="m58.48,192.22l-8.27-4.62-.94-8.66-7.61-4.25-.94-8.67-7.62-4.23-.94-8.67-7.61-4.25-.94-8.67-8.14-4.56,77.39-45.86h17.24l-20.56,69.87-22.47,17.74-8.59,14.83Zm-7.33-5.24l7,3.88,8.22-14.21,22.29-17.6,20.1-68.29h-15.66l-75.61,44.85,7.08,4,.94,8.67,7.61,4.25.94,8.67,7.61,4.24.94,8.67,7.61,4.25.93,8.62Z" fill="#4b0062"/><rect x="16.85" y="114.61" width="92.2" height="1" transform="translate(-52.07 51.99) rotate(-32.57)" fill="#4b0062"/><rect x="21.86" y="121.04" width="101.43" height="1" transform="translate(-59.53 70.68) rotate(-38.1)" fill="#4b0062"/><rect x="26.21" y="127.47" width="109.92" height="1" transform="translate(-65.7 90.61) rotate(-43.34)" fill="#4b0062"/><rect x="28.91" y="133.98" width="114.46" height="1" transform="translate(-72.44 115.54) rotate(-50.55)" fill="#4b0062"/><polygon points="92.94 120.89 0 266.46 132.31 310.63 162.8 127.5 92.94 120.89" fill="#4b0062"/><path d="m213.1,157.07l-28.22-66.76-9.66-22.87L146.73,0h-62.71l29.8,36.26-9.25,31.18-6.78,22.87h16.36c-10.53,18.49-4.08,42.01,14.41,52.54s42.01,4.08,52.54-14.41h0l32,28.63Z" fill="#4b0062"/><path d="m213.1,157.07l-32-28.63c-10.53,18.5-34.06,24.96-52.57,14.43s-24.96-34.06-14.43-52.57h70.73l28.27,66.76Z" fill="#f48001"/><path d="m214.42,158.92l-33.24-29.7c-10.82,18.63-34.7,24.96-53.33,14.14-18.63-10.82-24.96-34.7-14.14-53.34h0l.15-.24h71.34l.13.31,29.09,68.83Zm-33.5-31.28l30.85,27.56-27.22-64.43h-70.12c-10.33,18.28-3.89,41.47,14.38,51.81,18.28,10.33,41.47,3.89,51.81-14.39h0l.3-.55Z" fill="#4b0062"/><rect x="30.12" y="89.78" width="206.12" height="1" fill="#4b0062"/><polygon points="184.88 90.28 97.79 90.28 104.57 67.41 175.22 67.41 184.88 90.28" fill="#f44b1b"/><path d="m185.63,90.78h-88.53l7.08-23.87h71.36l10.09,23.87Zm-87.17-1h85.64l-9.24-21.87h-69.92l-6.48,21.87Z" fill="#4b0062"/><path d="m147.76,18.48l-.81,2.58-1.89,6-3.69,11.81-29.57,94.55-20.75-6.49,29.57-94.5,5.83-18.62c1.08-3.49,4.79-5.44,8.29-4.36,0,0,.02,0,.02,0l9.89,3.09c2.49.78,3.89,3.43,3.11,5.92,0,0,0,0,0,0Z" fill="#4b0062"/><path d="m112.1,134.04l-21.71-6.79L125.94,13.65c1.17-3.76,5.16-5.85,8.91-4.69,0,0,.02,0,.03,0l9.89,3.09c2.76.86,4.3,3.8,3.44,6.56h0l-6.39,20.43-29.72,94.99Zm-20.45-7.44l19.79,6.19,35.84-114.48c.7-2.23-.55-4.6-2.78-5.3,0,0,0,0,0,0l-9.89-3.09c-3.22-1.02-6.66.77-7.68,3.99,0,0,0,0,0,0l-35.28,112.68Z" fill="#4b0062"/><path d="m102.99,90.43l-1-.3L125.92,13.66c1.17-3.76,5.16-5.85,8.91-4.69,0,0,.02,0,.03,0l9.89,3.09c2.76.86,4.3,3.8,3.44,6.56l-6.39,20.43-16.07,51.37-1-.3,22.55-71.82c.7-2.23-.55-4.6-2.78-5.3,0,0,0,0,0,0l-9.89-3.09c-3.22-1.02-6.66.77-7.68,3.99,0,0,0,0,0,0l-23.94,76.51Z" fill="#a26bb4"/><path d="m147.76,18.48l-.81,2.58-1.89,6-3.69,11.81-20.75-6.48,5.83-18.62c1.08-3.49,4.79-5.44,8.29-4.36,0,0,.02,0,.02,0l9.89,3.09c2.5.77,3.9,3.42,3.13,5.91,0,.02-.01.04-.02.06Z" fill="#f48001"/><path d="m141.69,39.53l-21.71-6.78,6-19.1c1.17-3.76,5.16-5.85,8.91-4.69,0,0,.02,0,.03,0l9.89,3.09c2.76.86,4.3,3.8,3.44,6.56h0l-6.56,20.91Zm-20.45-7.43l19.8,6.21,6.24-20c.7-2.23-.55-4.6-2.78-5.3,0,0,0,0,0,0l-9.89-3.09c-3.22-1.02-6.66.77-7.68,3.99,0,0,0,0,0,0l-5.69,18.18Z" fill="#4b0062"/><path d="m195.95,34.44l-.81,2.58-1.89,6-3.69,11.81-20.74-6.49,5.82-18.62c1.1-3.49,4.81-5.43,8.31-4.35l9.9,3.1c2.5.78,3.89,3.44,3.11,5.94,0,.01,0,.02-.01.03Z" fill="#f48001"/><path d="m189.89,55.49l-21.69-6.79,6-19.1c1.18-3.76,5.18-5.85,8.94-4.68l9.9,3.1c2.76.87,4.29,3.8,3.43,6.56l-6.58,20.91Zm-20.44-7.45l19.79,6.19,6.24-20c.7-2.23-.54-4.6-2.77-5.3l-9.9-3.1c-3.22-1-6.65.78-7.68,4l-5.68,18.21Z" fill="#4b0062"/><polygon points="193.58 43.68 182.79 40.3 183.09 39.35 192.92 42.43 194.51 37.34 184.68 34.26 184.98 33.31 195.76 36.69 193.58 43.68" fill="#4b0062"/><circle cx="159.81" cy="115.55" r="9.7" fill="#fff0dc"/><path d="m159.81,125.75c-5.63,0-10.2-4.57-10.2-10.2s4.57-10.2,10.2-10.2,10.2,4.57,10.2,10.2c0,5.63-4.57,10.19-10.2,10.2Zm0-19.41c-5.08,0-9.2,4.12-9.2,9.2s4.12,9.2,9.2,9.2,9.2-4.12,9.2-9.2c.01-5.09-4.1-9.22-9.19-9.23,0,0,0,0-.01,0v.03Z" fill="#4b0062"/><ellipse cx="162.01" cy="115.42" rx="4.1" ry="3.22" transform="translate(-18.79 198.38) rotate(-60.11)" fill="#f44b1b"/><path d="m160.19,121.31c-.55,0-1.1-.14-1.58-.42-1.77-1-2.18-3.64-.92-5.83h0c1.26-2.19,3.74-3.15,5.51-2.12s2.18,3.64.92,5.83c-.56,1.01-1.45,1.8-2.51,2.25-.45.19-.93.28-1.42.29Zm-1.63-5.75c-1,1.71-.74,3.72.55,4.46.66.35,1.45.38,2.13.07.85-.37,1.55-1.01,2-1.82,1-1.71.74-3.72-.55-4.46s-3.15,0-4.14,1.76h.01Z" fill="#4b0062"/><path d="m149.38,90.31l-14.28,7.26c-.84-2.49-1.85-4.93-3-7.29l17.28.03Z" fill="#4b0062"/><rect x="127.75" y="92.15" width="1" height="7.38" transform="translate(-18.62 32.1) rotate(-13.31)" fill="#4b0062"/><path d="m160.58,146.08c-10.79,3.96-22.79,2.9-32.72-2.89-4.28-11.8-1.91-24.73,6.89-27.33,3.29-1,5.73-.33,7.73,1.34s3.55,4.39,5,7.57c0,.04,0,.07,0,.11,2.26,4.83,4.41,10.7,7.81,15.59,1.46,2.13,3.25,4.02,5.29,5.61Z" fill="#4b0062"/><path d="m147.28,148.94c-6.91,0-13.7-1.83-19.67-5.32l-.16-.09-.06-.17c-2.81-7.76-2.8-16.06,0-21.67,1.4-3.02,4-5.31,7.18-6.31,3.22-1,5.9-.48,8.19,1.44s3.87,5,5.17,7.74c.03.06.06.13.08.2.54,1.13,1.1,2.42,1.68,3.74,1.64,4.08,3.66,8,6.05,11.69,1.41,2.09,3.13,3.94,5.1,5.5l.71.55-.84.31c-4.3,1.58-8.85,2.39-13.43,2.39Zm-19-6.09c9.51,5.48,20.91,6.59,31.3,3.06-1.76-1.5-3.3-3.24-4.6-5.15-2.43-3.74-4.49-7.72-6.15-11.86-.58-1.31-1.14-2.59-1.7-3.81l.4-.32-.45.21c-1.25-2.67-2.81-5.64-4.91-7.4s-4.35-2.1-7.27-1.24c-2.91.92-5.29,3.03-6.57,5.8-2.71,5.33-2.73,13.25-.06,20.71h0Z" fill="#4b0062"/><path d="m147.28,148.94c-6.91,0-13.7-1.83-19.67-5.32l.51-.86c9.8,5.71,21.64,6.76,32.29,2.85l.35.94c-4.32,1.59-8.88,2.4-13.48,2.39Z" fill="#a26bb4"/><path d="m147.52,124.77l-9.42-.27,4.38-7.3c2,1.68,3.55,4.39,5.04,7.57Z" fill="#fff0dc"/><path d="m148.31,125.31l-11.08-.32,5.12-8.54.45.38c2.24,1.88,3.87,5,5.17,7.74l.34.74Zm-9.35-1.27l7.75.22c-1-2.31-2.4-4.43-4.12-6.27l-3.63,6.05Z" fill="#4b0062"/><path d="m146.36,140.21l4.25-7.09-7.85-.22,4.81-8c2.26,4.83,4.41,10.7,7.81,15.59l-9.02-.28Z" fill="#fff0dc"/><path d="m156.35,141l-10.86-.31,4.25-7.09-7.85-.22,5.73-9.56.4.85c.57,1.22,1.13,2.51,1.71,3.83,1.63,4.08,3.66,8,6.05,11.69l.57.81Zm-9.13-1.26l7.19.21c-1.31-2.04-2.48-4.17-3.5-6.37l-3.69,6.16Zm-3.6-7.31l6.85.19c-.57-1.24-1.12-2.49-1.66-3.72-.44-1-.87-2-1.31-2.95l-3.88,6.48Z" fill="#4b0062"/><polygon points="74.44 345.28 60.29 338.12 60.29 337.81 59.85 307.85 64.42 297.33 65.34 297.73 60.86 308.05 61.28 337.5 74.89 344.39 74.44 345.28" fill="#a26bb4"/><rect x="139.39" y="20.07" width="1" height="10.81" transform="translate(73.79 151.37) rotate(-72.62)" fill="#4b0062"/><rect x="141.3" y="14.05" width="1" height="10.8" transform="translate(80.83 148.94) rotate(-72.6)" fill="#4b0062"/><rect x="174.16" y="49.27" width="1" height="33.62" transform="translate(-11.95 73.17) rotate(-22.9)" fill="#a26bb4"/></svg>