<?xml version="1.0" encoding="UTF-8"?><svg id="zombie" xmlns="http://www.w3.org/2000/svg" viewBox="0 -0 224.76 302.26"><path d="m70.27,29.68c-.85,0-1.65-.43-2.11-1.15-1.24-1.94-3.41-3.94-9.17-2.19-2.73.94-5.74.57-8.16-1-2.47-1.78-3.99-4.58-4.14-7.62-.11-1.38.92-2.59,2.3-2.7s2.59.92,2.7,2.3c.05,1.53.78,2.95,2,3.88,1.17.73,2.6.87,3.89.39,6.71-2,11.71-.61,14.84,4.27.75,1.16.41,2.71-.75,3.45-.4.26-.87.4-1.35.4l-.05-.03Z" fill="#f44b1b"/><path d="m70.27,30.18c-1.02,0-1.98-.52-2.53-1.38-1.22-1.9-3.2-3.63-8.6-2-2.88.97-6.04.56-8.58-1.11-2.59-1.87-4.2-4.81-4.36-8-.13-1.65,1.1-3.1,2.75-3.23,1.65-.13,3.1,1.1,3.23,2.75.03,1.37.68,2.66,1.76,3.51,1.04.64,2.32.76,3.46.32,7-2.12,12.14-.61,15.4,4.48.89,1.39.49,3.25-.9,4.14-.48.31-1.04.47-1.62.48v.04Zm-7.38-5c2.32-.11,4.51,1.07,5.68,3.08.6.93,1.83,1.19,2.76.6.93-.6,1.19-1.83.6-2.76-3-4.67-7.8-6-14.27-4.07-1.43.53-3.02.36-4.31-.45-1.33-1.01-2.14-2.58-2.19-4.25-.09-1.1-1.06-1.93-2.16-1.84s-1.93,1.06-1.84,2.16c.14,2.88,1.59,5.55,3.93,7.24,2.28,1.51,5.14,1.88,7.73,1,1.32-.46,2.7-.71,4.1-.76l-.03.05Z" fill="#4b0062"/><path d="m110.79,291.67c-.35-1.69-1.46-3.14-3-3.92l-1.51-.76,18.42-36.53-7.15-3.61-18.42,36.53-1.51-.76c-2.81-1.42-6.24-.29-7.66,2.52-1.42,2.81-.29,6.24,2.52,7.66,2.37,1.2,5.26.59,6.95-1.45l.26.13c-.76,3.06,1.11,6.15,4.16,6.9,3.06.76,6.15-1.11,6.9-4.16.21-.84.22-1.71.04-2.55h-.02Z" fill="#fff0dc"/><path d="m105.21,299.04c-3.43-.01-6.2-2.8-6.19-6.23,0-.12,0-.23.01-.35-2.64,2.18-6.55,1.82-8.73-.82-2.18-2.64-1.82-6.55.82-8.73,1.89-1.56,4.51-1.87,6.71-.78l1.06.54,18.38-36.54,8,4.06-18.42,36.53,1.06.54c1.69.85,2.89,2.41,3.28,4.26h0c.7,3.36-1.46,6.64-4.82,7.34-.41.09-.83.13-1.25.13l.09.05Zm-5.94-8.32l1,.49-.1.39c-.69,2.79,1.02,5.61,3.81,6.29s5.61-1.02,6.29-3.81c.58-2.35-.54-4.8-2.71-5.89l-2-1,18.42-36.53-6.26-3.16-18.42,36.53-2-1c-2.57-1.28-5.69-.24-6.97,2.33s-.24,5.69,2.33,6.97c2.15,1.07,4.75.53,6.3-1.31l.31-.32Z" fill="#4b0062"/><path d="m96.65,40.13v24.22H.51v-16.1c0-4.49,3.64-8.13,8.13-8.13h88.01Z" fill="#f48001"/><path d="m97.15,64.84H0v-16.58c0-4.76,3.87-8.62,8.63-8.63h88.52v25.21ZM1,63.84h95.15v-23.21H8.64c-4.21,0-7.62,3.42-7.63,7.63v15.58Z" fill="#4b0062"/><path d="m39.15,56.13l-6,4,6,4-.19.15H.51v-16.03c0-4.49,3.64-8.13,8.13-8.13h30.48l-6,4,6,4-6,4,6.03,4.01Z" fill="#a26bb4"/><path d="m39.14,64.84H0v-16.58c0-4.76,3.87-8.62,8.63-8.63h32.13l-6.71,4.5,6,4-6,4,6,4-6,4,6,4-.91.71Zm-38.13-1h36.73l-5.47-3.71,6-4-6-4,6-4-6-4,5.21-3.49H8.64c-4.21,0-7.62,3.42-7.63,7.63v15.57Z" fill="#4b0062"/><path d="m205.43,284.35l-5.81-27.78-6.53-31.28-7.32-35.06h-18.6v.12l-39.5,83.65-2.3-7.57-7.65,3-2.38-7.85-7.65,2.94-2.42-7.89-7.64,2.94v-.15l31.85-68.29.54-1.16.1-.2,6-13,5.86-12.56.08-.17-.16-125.26,31,2.24c19.92,1.41,35.95,16.94,38,36.81l8.93,85.92,1.35,13,1.5,14.49,9.67,93,1.81,17.4h-43.2l.74-5.41c.98-6.82,6.84-11.89,13.73-11.88Z" fill="#f48001"/><path d="m234.76,302.26h-44.38l.82-6c.96-6.87,6.69-12.09,13.62-12.41l-19.46-93.12h-17.86l-39.93,84.66-2.52-8.3-7.65,3-2.38-7.85-7.65,2.89-2.39-7.84-7.63,2.94-.28-.84.08-.18,44.44-95.24-.16-125.69,31.56,2.28c20.16,1.44,36.37,17.16,38.44,37.26l23.33,224.44Zm-43.23-1h42.12l-23.2-223.33c-2.03-19.61-17.85-34.94-37.52-36.36l-30.48-2.2.16,124.83-.13.27-44,94.25,7.13-2.74,2.39,7.84,7.65-2.94,2.38,7.85,7.65-3,2.08,6.84,38.94-82.58.13-.31h19.34l19.88,95.12h-.62c-6.67.03-12.32,4.95-13.24,11.56l-.66,4.9Z" fill="#4b0062"/><path d="m205.43,284.35l-5.81-27.78-6.53-31.28-7.32-35.06h-18.6v.12l-39.5,83.65-2.3-7.57-7.65,3-2.38-7.85-7.65,2.94-2.42-7.89-7.64,2.94v-.15l31.85-68.29.54-1.16.1-.2,6-13,5.86-12.56,4.88-6,4.83,6,4.84-6,4.84,6,4.83-6,4.84,6,4.84-6,4.83,6,4.84-6,4.84,6,4.83-6,4.84,6,4.83-6,4.84,6,4.84-6,5.26,5.49,1.35,13,1.5,14.49,9.67,93,1.81,17.4h-43.2l.74-5.41c1.01-6.8,6.85-11.84,13.73-11.83Z" fill="#4b0062"/><path d="m207.01,64.07l-6.3,6.48-2.94-11.17-6.42-2.11,4.39-1.87-9.84-5.78,7.89-1.1c5.64,3.99,10.19,9.34,13.22,15.55Z" fill="#a26bb4"/><path d="m200.45,71.54l-3.1-11.76-7.42-2.44,4.7-2-10.22-6,9.51-1.33.16.11c5.71,4.05,10.31,9.46,13.38,15.74l.15.32-7.16,7.36Zm-7.68-14.32l5.42,1.78,2.78,10.58,5.44-5.59c-2.97-5.94-7.34-11.06-12.74-14.93l-6.27.87,9.46,5.55-4.09,1.74Z" fill="#4b0062"/><path d="m163.63,57.87c0,11.92-12,19.78-12,19.78v13.83c0,9-7.29,16.29-16.29,16.29h-45.07c-8.99,0-16.28-7.29-16.28-16.28h0v-18.95c-7.03-.01-12.73-5.72-12.72-12.75v-20.22c0-21.58,17.5-39.07,39.08-39.07h21.55c3.26,0,5.9,2.64,5.9,5.9h2.87c5.33,0,9.64,4.31,9.65,9.64,5.35,0,9.81,4.07,10.3,9.4l.13,1.31,2,21.47s10.88-.5,10.88,9.65Z" fill="#a26bb4"/><path d="m135.35,108.28h-45.08c-9.27-.01-16.77-7.52-16.78-16.79v-18.46c-7.11-.27-12.74-6.11-12.75-13.23v-20.23C60.77,17.72,78.47.02,100.32,0h21.55c3.34,0,6.11,2.57,6.38,5.9h2.39c5.41,0,9.87,4.25,10.14,9.65,5.41.24,9.82,4.44,10.31,9.84l.13,1.31,2,21c1.37,0,5.33.32,8.1,3,1.89,1.9,2.9,4.52,2.76,7.2,0,11.13-10.32,18.86-12,20v13.57c0,9.25-7.48,16.77-16.73,16.81ZM100.35,1.01c-21.29.02-38.55,17.28-38.58,38.57v20.22c.01,6.76,5.49,12.23,12.25,12.24h.5v19.45c0,8.7,7.05,15.76,15.75,15.79h45c8.72-.01,15.78-7.07,15.79-15.79v-14.1l.23-.15c.12-.08,11.76-7.86,11.76-19.36.13-2.41-.76-4.75-2.45-6.47-3-2.87-7.79-2.69-7.84-2.68h-.48l-2.23-23.25c-.46-5.07-4.71-8.95-9.8-8.95h-.5v-.5c-.01-5.05-4.1-9.13-9.15-9.14h-3.33v-.5c0-2.98-2.42-5.39-5.4-5.4l-21.52.02Z" fill="#4b0062"/><path d="m150.77,26.75h-25.79c-6.16,0-11.16-5-11.16-11.16h0V.5h8.09c3.26,0,5.9,2.64,5.9,5.9h2.87c5.33,0,9.64,4.31,9.65,9.64,5.35,0,9.81,4.07,10.3,9.4l.14,1.31Z" fill="#fff0dc"/><path d="m151.27,27.26h-26.29c-6.44,0-11.65-5.22-11.66-11.66V.01h8.59c3.34,0,6.11,2.57,6.38,5.9h2.39c5.41,0,9.87,4.25,10.14,9.65,5.41.24,9.82,4.44,10.31,9.84l.14,1.86ZM114.27,1.01v14.59c0,5.89,4.77,10.65,10.66,10.66h25.23l-.08-.76c-.46-5.07-4.71-8.95-9.8-8.95h-.5v-.5c-.01-5.05-4.1-9.13-9.15-9.14h-3.36v-.5c0-2.98-2.42-5.39-5.4-5.4h-7.6Z" fill="#4b0062"/><rect x="8.19" y="49.75" width="1" height="14.59" fill="#4b0062"/><rect x="16.38" y="49.75" width="1" height="14.59" fill="#4b0062"/><polyline points="197.5 80.55 186.52 114.83 184.71 120.45 178.77 139.06 151.4 139.06 151.6 138.4 159.15 114.83 172.68 72.62" fill="#f48001"/><polygon points="179.13 139.56 150.71 139.56 151.13 138.25 172.2 72.47 173.15 72.77 152.08 138.56 178.4 138.56 197.02 80.39 197.98 80.7 179.13 139.56" fill="#4b0062"/><path d="m186.52,114.84l-1.8,5.62-5.95,18.6h-77.09v-16.09c0-4.49,3.64-8.13,8.13-8.13h49.34" fill="#f48001"/><path d="m179.13,139.55h-77.94v-16.59c0-4.76,3.87-8.62,8.63-8.63h49.34v1h-49.35c-4.21,0-7.62,3.42-7.63,7.63v15.59h76.21l7.64-23.87,1,.3-7.9,24.57Z" fill="#4b0062"/><path d="m140.34,122.75l-6,4,6,4-6,3.95,6,4-.66.5h-38v-16.23c0-4.49,3.64-8.13,8.13-8.13h30.52l-6,3.95,6.01,3.96Z" fill="#a26bb4"/><path d="m139.84,139.55h-38.65v-16.59c0-4.76,3.87-8.62,8.63-8.63h30.62l.89.44-.71.49-5.35,3.54,6,4-6,3.95,6,3.95-6,4,6,3.92-1.43.93Zm-37.66-1h37.24l-6-3.95,6-4-6-3.95,6-4-6-4,5.25-3.46h-28.86c-4.21,0-7.62,3.42-7.63,7.63v15.73Z" fill="#4b0062"/><rect x="109.37" y="124.46" width="1" height="14.59" fill="#4b0062"/><rect x="117.56" y="124.46" width="1" height="14.59" fill="#4b0062"/><circle cx="84.62" cy="51.04" r="10.59" fill="#4b0062"/><path d="m129.27,51.04c0,5.85-4.75,10.59-10.6,10.58-5.84,0-10.58-4.74-10.58-10.58v-.74h21.18v.74Z" fill="#4b0062"/><path d="m118.65,62.13c-6.12,0-11.08-4.96-11.09-11.08v-1.23h22.1v1.24c-.02,6.08-4.93,11.02-11.01,11.07Zm-10.08-11.33v.24c0,5.57,4.53,10.09,10.1,10.08,5.57,0,10.08-4.52,10.08-10.08v-.24h-20.18Z" fill="#4b0062"/><path d="m126.14,51.04c0,4.14-3.36,7.5-7.5,7.5s-7.5-3.36-7.5-7.5c-.01-.25-.01-.49,0-.74h14.89c.05.24.09.49.11.74Z" fill="#fff0dc"/><path d="m118.65,59.03c-4.42,0-8-3.58-8-8-.02-.27-.02-.53,0-.8l.05-.44h15.78l.05.44c.02.27.02.53,0,.8,0,4.37-3.51,7.93-7.88,8Zm-7-8.22v.24c0,3.87,3.13,7,7,7s7-3.13,7-7v-.24h-14Z" fill="#4b0062"/><rect x="105.94" y="49.8" width="25.41" height="1" fill="#4b0062"/><path d="m121.2,93.5h0c.01.18.01.35,0,.53-.35,2.7-2.66,4.72-5.39,4.68-1.34,0-2.64-.49-3.65-1.38-.23-.2-.44-.43-.63-.67-2.15-1.84-5.31-1.84-7.46,0-.25.2-.47.43-.66.69-1,.88-2.29,1.36-3.63,1.36-2.93.04-5.34-2.28-5.41-5.21h0c-.02-.19-.02-.38,0-.57.07-.82.27-1.63.6-2.39.67-1.5,1.7-2.82,3-3.82,1.73-1.32,3.72-2.24,5.85-2.69,1.29-.29,2.6-.43,3.92-.43h.78c2.44.08,4.83.69,7,1.8,1.45.73,2.74,1.75,3.79,3,1.06,1.27,1.72,2.84,1.88,4.49-.02.24,0,.41,0,.61Z" fill="#4b0062"/><path d="m115.77,99.26c-1.47,0-2.9-.53-4-1.51-.26-.22-.49-.47-.69-.74-1.97-1.6-4.8-1.57-6.73.07-.22.18-.42.39-.59.62l-.07.07c-1.11.97-2.53,1.5-4,1.49-3.2.04-5.84-2.51-5.91-5.71-.02-.23-.02-.47,0-.7.07-.87.29-1.71.63-2.51.71-1.58,1.8-2.95,3.17-4,1.79-1.36,3.85-2.32,6.05-2.79,1.58-.35,3.21-.49,4.83-.42,2.49.09,4.94.73,7.16,1.86,1.55.76,2.93,1.83,4.05,3.14,1.13,1.35,1.83,3.01,2,4.76v.61h0c.02.21.02.41,0,.62-.36,2.97-2.91,5.19-5.9,5.14Zm-8-4.43c1.49-.01,2.94.53,4.06,1.51.19.24.4.47.63.67.92.81,2.1,1.26,3.32,1.26,2.47.04,4.58-1.79,4.89-4.24.01-.16.01-.31,0-.47h0v-.54c-.15-1.55-.77-3.01-1.77-4.2-1-1.2-2.24-2.18-3.63-2.89-2.09-1.06-4.39-1.66-6.74-1.74-1.53-.07-3.07.07-4.57.4-2.06.42-4,1.28-5.69,2.54-1.24.95-2.23,2.19-2.87,3.62-.31.71-.5,1.47-.56,2.24-.01.18-.01.35,0,.53.04,2.67,2.24,4.8,4.91,4.76,1.2,0,2.35-.42,3.26-1.2.21-.27.44-.52.71-.74,1.12-.98,2.56-1.51,4.05-1.5h0Z" fill="#4b0062"/><polygon points="106.78 78.64 101.84 78.64 99.58 71.79 97.32 78.64 92.38 78.64 99.58 56.84 106.78 78.64" fill="#4b0062"/><polygon points="184.71 120.45 178.77 139.06 149.13 139.06 151.6 138.4 159.78 136.25 167.59 130.48 163.03 125.76 173.45 126.49 174.17 118.19 179.63 123.73 184.71 120.45" fill="#a26bb4"/><path d="m179.13,139.55h-33.86l14.32-3.77,7.27-5.37-5.09-5.28,11.22.79.78-8.88,5.92,6,5.92-3.8-6.48,20.31Zm-26.13-1h25.4l5.42-16.93-4.26,2.74-5-5-.68,7.7-9.6-.67,4.05,4.19-8.44,6.19-6.89,1.78Z" fill="#4b0062"/><path d="m234.21,301.75h-43.25l.74-5.41c.93-6.88,6.8-12,13.74-12h27l1.77,17.41Z" fill="#f44b1b"/><path d="m234.76,302.26h-44.38l.82-6c1-7.1,7.07-12.4,14.24-12.42h27.41l1.91,18.42Zm-43.23-1h42.12l-1.71-16.4h-26.5c-6.67.03-12.32,4.95-13.24,11.56l-.67,4.84Z" fill="#4b0062"/><polygon points="209.91 251.51 210.27 259.19 203.58 254.71 199.63 256.57 193.09 225.3 199.56 235.61 206.62 228.77 207.69 236.58 214.83 236.58 210.64 245.26 217.96 249.09 209.91 251.51" fill="#a26bb4"/><path d="m210.82,260.13l-7.29-4.86-4.27,2-7.23-34.64,7.62,12.16,7.33-7.09,1.14,8.36h7.5l-4.33,9,8,4.18-8.84,2.65.37,8.24Zm-7.2-6l6.11,4.08-.33-7.08,7.24-2.17-6.66-3.5,4.05-8.39h-6.76l-1-7.27-6.79,6.57-5.3-8.46,5.83,27.92,3.61-1.7Z" fill="#4b0062"/><path d="m134.83,27.01l-.86-.5c1.77-3.28,5.56-4.9,9.15-3.92l-.22,1c-3.16-.89-6.51.53-8.07,3.42Z" fill="#4b0062"/><rect x="120.31" y="20.57" width="6.98" height="1" transform="translate(14.47 82.85) rotate(-39.13)" fill="#4b0062"/><path d="m132.82,20.54c-3.94,0-5.81-.43-6.65-1.55-1-1.28-.42-3.26.42-6.24l.1-.34,1,.27-.1.34c-.76,2.7-1.26,4.48-.58,5.37s2.36,1.15,5.86,1.15l-.05,1Z" fill="#4b0062"/><path d="m117.93,20.38l-.74-.67c2.73-3,3.84-5.66,3.3-7.81-.61-2.42-3.16-3.65-4.63-4.17l.33-.94c1.65.59,4.54,2,5.26,4.86.64,2.48-.55,5.48-3.52,8.73Z" fill="#4b0062"/><path d="m119.27,88.44l-2,4.36-4.28-2,2.51-5.39c1.45.74,2.73,1.77,3.77,3.03Z" fill="#fff0dc"/><path d="m117.51,93.47l-5.19-2.41,2.94-6.32.46.24c1.52.77,2.86,1.84,3.95,3.15l.2.24-2.36,5.1Zm-3.86-2.9l3.37,1.57,1.68-3.62c-.86-.96-1.87-1.77-3-2.4l-2.05,4.45Z" fill="#4b0062"/><path d="m108.96,88.96l-4.7.37-.42-5.29c1.29-.29,2.6-.43,3.92-.43h.78l.42,5.35Z" fill="#fff0dc"/><path d="m103.81,89.86l-.49-6.22.42-.1c1.58-.35,3.21-.49,4.83-.42h.44l.49,6.27-5.69.47Zm.57-5.43l.35,4.35,3.7-.29-.35-4.39c-1.24-.03-2.48.08-3.7.33h0Z" fill="#4b0062"/><path d="m101.27,91.13l-3.77,2.83-2.56-3.42c.67-1.5,1.7-2.82,3-3.82l3.33,4.41Z" fill="#fff0dc"/><path d="m97.44,94.67l-3-4.05.11-.26c.71-1.58,1.8-2.95,3.17-4l.4-.32,3.92,5.22-4.6,3.41Zm-1.88-4.19l2.08,2.78,3-2.23-2.69-3.59c-1,.83-1.82,1.87-2.4,3.04h.01Z" fill="#4b0062"/><path d="m129.74,88.87h-1v-15.15h.47c.4,0,9.74-.72,11-9.42l1,.14c-1.17,8.34-9.36,9.95-11.42,10.22l-.05,14.21Z" fill="#4b0062"/><path d="m156.27,63.19c-1,2-3,4.08-6.37,5.63v-13.45c2.76-.42,4.88.44,6,2,1.22,1.71,1.37,3.97.37,5.82Z" fill="#4b0062"/><path d="m149.42,69.61v-14.66l.42-.06c2.77-.42,5.15.36,6.5,2.15,1.35,1.87,1.5,4.36.39,6.38-.77,1.64-2.55,4-6.61,5.87l-.7.32Zm1-13.79v12.21c2.31-1.01,4.22-2.77,5.42-5h0c.95-1.68.84-3.76-.28-5.34-1.26-1.5-3.22-2.21-5.14-1.87Z" fill="#4b0062"/><rect x="62.77" y="20.65" width="1" height="5.03" transform="translate(-.87 2.54) rotate(-2.28)" fill="#4b0062"/><rect x="57.09" y="21.56" width="1" height="5.09" transform="translate(-.82 2.06) rotate(-2.03)" fill="#4b0062"/><rect x="49.75" y="22.73" width="5.06" height="1" transform="translate(.31 47.16) rotate(-48.68)" fill="#4b0062"/><rect x="47.27" y="19.49" width="5.04" height="1" transform="translate(-3.54 25.92) rotate(-28.22)" fill="#4b0062"/><path d="m167.48,49.24c-1.64,1.24-2.61,3.11-3.73,5.28-1.57,3-3.38,6.53-7.47,8.67-1.99,1-4.15,1.62-6.37,1.83v-5c2.24-.21,4.35-1.15,6-2.68,1.39-1.51,2.53-3.23,3.36-5.11,1.28-2.48,2.61-5,5.15-7,1.1-.83,2.67-.6,3.5.5s.6,2.67-.5,3.5h.06Z" fill="#fff0dc"/><path d="m149.42,65.59v-6l.43-.06c2.14-.2,4.16-1.09,5.75-2.54,1.36-1.47,2.46-3.16,3.26-5,1.31-2.54,2.66-5.15,5.3-7.15,1.32-1,3.21-.74,4.2.58,1,1.32.74,3.21-.58,4.21-1.56,1.18-2.5,3-3.59,5.11-1.53,3-3.44,6.66-7.68,8.88-2.05,1.02-4.26,1.66-6.54,1.88l-.55.09Zm1-5.14v4c1.96-.24,3.87-.82,5.64-1.71,4-2.07,5.71-5.46,7.26-8.46,1.15-2.22,2.13-4.13,3.87-5.45h0c.88-.67,1.05-1.92.38-2.81-.67-.88-1.92-1.05-2.8-.38-2.46,1.87-3.76,4.38-5,6.8-.86,1.93-2.03,3.7-3.47,5.24-1.62,1.52-3.68,2.48-5.88,2.76h0Z" fill="#4b0062"/><rect x="163.32" y="46.96" width="1" height="5.04" transform="translate(15.21 134.33) rotate(-46.53)" fill="#4b0062"/><rect x="160.79" y="51.23" width="1" height="5.13" transform="translate(15.28 140.91) rotate(-49.27)" fill="#4b0062"/><rect x="157.87" y="55.84" width="1" height="5.1" transform="translate(-2.38 109.85) rotate(-37.99)" fill="#4b0062"/><rect x="154.12" y="58.68" width="1" height="5.05" transform="translate(-10.84 44.59) rotate(-15.86)" fill="#4b0062"/></svg>